<svg width="23" height="24" viewBox="0 0 23 24" fill="none" xmlns="http://www.w3.org/2000/svg">
<path d="M5.07442 2.64408L5.57179 2.93333L6.05051 2.61418L8.30771 1.10938L10.5649 2.61418L11.0769 2.95553L11.589 2.61418L13.8462 1.10938L16.1034 2.61418L16.6154 2.95553L17.1274 2.61418L19.3846 1.10938L21.2308 2.34014V21.5967L19.3846 22.8768L17.1414 21.3214L16.6154 20.9568L16.0894 21.3214L13.8462 22.8768L11.6029 21.3214L11.0769 20.9568L10.551 21.3214L8.29753 22.8838L6.05051 21.3857L5.57179 21.0666L5.07442 21.3559L2.43988 22.888L0.923096 21.7035V2.29646L2.43988 1.11193L5.07442 2.64408Z" stroke="#D73227" stroke-width="1.5"/>
<path d="M1.84619 6.9231L3.67896 5.82344C3.97129 5.64805 4.33648 5.64805 4.62881 5.82344L5.98665 6.63815C6.27898 6.81354 6.64417 6.81354 6.9365 6.63815L8.29435 5.82344C8.58668 5.64805 8.95186 5.64805 9.24419 5.82344L10.602 6.63815C10.8944 6.81354 11.2595 6.81354 11.5519 6.63815L12.9097 5.82344C13.2021 5.64805 13.5672 5.64805 13.8596 5.82344L15.2174 6.63815C15.5098 6.81354 15.8749 6.81354 16.1673 6.63815L17.5251 5.82344C17.8175 5.64805 18.1826 5.64805 18.475 5.82344L19.6897 6.55229C20.053 6.77022 20.5178 6.71299 20.8174 6.41348L21.2308 6.00002" stroke="#D73227" stroke-width="1.5" stroke-linecap="round"/>
<path d="M1.84619 12.4615L3.67896 11.3619C3.97129 11.1865 4.33648 11.1865 4.62881 11.3619L5.98665 12.1766C6.27898 12.352 6.64417 12.352 6.9365 12.1766L8.29435 11.3619C8.58668 11.1865 8.95186 11.1865 9.24419 11.3619L10.602 12.1766C10.8944 12.352 11.2595 12.352 11.5519 12.1766L12.9097 11.3619C13.2021 11.1865 13.5672 11.1865 13.8596 11.3619L15.2174 12.1766C15.5098 12.352 15.8749 12.352 16.1673 12.1766L17.5251 11.3619C17.8175 11.1865 18.1826 11.1865 18.475 11.3619L19.6897 12.0907C20.053 12.3087 20.5178 12.2515 20.8174 11.9519L21.2308 11.5385" stroke="#D73227" stroke-width="1.5" stroke-linecap="round"/>
<path d="M1.84619 18L3.67896 16.9003C3.97129 16.725 4.33648 16.725 4.62881 16.9003L5.98665 17.715C6.27898 17.8904 6.64417 17.8904 6.9365 17.715L8.29435 16.9003C8.58668 16.725 8.95186 16.725 9.24419 16.9003L10.602 17.715C10.8944 17.8904 11.2595 17.8904 11.5519 17.715L12.9097 16.9003C13.2021 16.725 13.5672 16.725 13.8596 16.9003L15.2174 17.715C15.5098 17.8904 15.8749 17.8904 16.1673 17.715L17.5251 16.9003C17.8175 16.725 18.1826 16.725 18.475 16.9003L19.6897 17.6292C20.053 17.8471 20.5178 17.7899 20.8174 17.4904L21.2308 17.0769" stroke="#D73227" stroke-width="1.5" stroke-linecap="round"/>
</svg>
