<svg width="44" height="44" viewBox="0 0 44 44" fill="none" xmlns="http://www.w3.org/2000/svg">
<g id="vuesax/outline/shield-tick">
<g id="shield-tick">
<path id="Vector" d="M22.0001 41.7267C20.0017 41.7267 18.0217 41.14 16.4634 39.985L8.58006 34.1C6.49006 32.5417 4.8584 29.2784 4.8584 26.6934V13.0533C4.8584 10.23 6.93006 7.22335 9.5884 6.23335L18.7367 2.80501C20.5517 2.12668 23.4117 2.12668 25.2267 2.80501L34.3751 6.23335C37.0334 7.22335 39.1051 10.23 39.1051 13.0533V26.675C39.1051 29.2783 37.4734 32.5233 35.3834 34.0817L27.5001 39.9667C25.9784 41.14 23.9984 41.7267 22.0001 41.7267ZM19.7084 5.39001L10.5601 8.81835C9.00173 9.40501 7.62673 11.385 7.62673 13.0717V26.6934C7.62673 28.435 8.85506 30.8733 10.2301 31.9L18.1134 37.785C20.2217 39.3617 23.7784 39.3617 25.9051 37.785L33.7884 31.9C35.1817 30.855 36.3917 28.435 36.3917 26.6934V13.0533C36.3917 11.385 35.0167 9.40502 33.4584 8.80002L24.3101 5.37168C23.0634 4.93168 20.9367 4.93168 19.7084 5.39001Z" fill="#D73227"/>
<path id="Vector_2" d="M19.5433 26.0883C19.1949 26.0883 18.8466 25.96 18.5716 25.685L15.6199 22.7333C15.0883 22.2017 15.0883 21.3217 15.6199 20.79C16.1516 20.2583 17.0316 20.2583 17.5633 20.79L19.5433 22.77L26.4549 15.8583C26.9866 15.3267 27.8666 15.3267 28.3983 15.8583C28.9299 16.39 28.9299 17.27 28.3983 17.8017L20.5149 25.685C20.2399 25.96 19.8916 26.0883 19.5433 26.0883Z" fill="#D73227"/>
</g>
</g>
</svg>
