<svg width="44" height="44" viewBox="0 0 44 44" fill="none" xmlns="http://www.w3.org/2000/svg">
<g id="vuesax/outline/3d-rotate">
<g id="3d-rotate">
<path id="Vector" d="M22.0001 23.9799C21.7618 23.9799 21.5235 23.9249 21.3035 23.7965L11.5868 18.1865C10.9268 17.8015 10.7068 16.9582 11.0918 16.3165C11.4768 15.6565 12.3018 15.4365 12.9801 15.8215L22.0001 21.0465L30.9652 15.8582C31.6252 15.4732 32.4685 15.7115 32.8535 16.3532C33.2385 17.0132 33.0001 17.8565 32.3585 18.2232L22.7152 23.7965C22.4768 23.9065 22.2385 23.9799 22.0001 23.9799Z" fill="#D73227"/>
<path id="Vector_2" d="M22 33.9533C21.2483 33.9533 20.625 33.33 20.625 32.5783V22.605C20.625 21.8533 21.2483 21.23 22 21.23C22.7517 21.23 23.375 21.8533 23.375 22.605V32.5783C23.375 33.33 22.7517 33.9533 22 33.9533Z" fill="#D73227"/>
<path id="Vector_3" d="M22.0004 34.375C20.9371 34.375 19.8921 34.1366 19.0488 33.6783L13.1821 30.415C11.4221 29.4433 10.0654 27.115 10.0654 25.0983V18.8833C10.0654 16.885 11.4405 14.5383 13.1821 13.5666L19.0488 10.3033C20.7355 9.3683 23.2654 9.3683 24.9521 10.3033L30.8188 13.5666C32.5788 14.5383 33.9355 16.8666 33.9355 18.8833V25.0983C33.9355 27.0966 32.5604 29.4433 30.8188 30.415L24.9521 33.6783C24.1088 34.1366 23.0638 34.375 22.0004 34.375ZM22.0004 12.375C21.3954 12.375 20.8088 12.485 20.3871 12.7233L14.5205 15.9866C13.6221 16.4816 12.8154 17.875 12.8154 18.8833V25.0983C12.8154 26.125 13.6221 27.5 14.5205 27.995L20.3871 31.2583C21.2304 31.735 22.7705 31.735 23.6138 31.2583L29.4804 27.995C30.3788 27.5 31.1855 26.1066 31.1855 25.0983V18.8833C31.1855 17.8566 30.3788 16.4816 29.4804 15.9866L23.6138 12.7233C23.1921 12.485 22.6054 12.375 22.0004 12.375Z" fill="#D73227"/>
<path id="Vector_4" d="M27.5003 41.7084C27.0053 41.7084 26.547 41.4334 26.3086 41.0117C26.0703 40.5717 26.0702 40.0584 26.3269 39.6184L28.2519 36.41C28.6369 35.7684 29.4803 35.5484 30.1403 35.9334C30.8003 36.3184 31.002 37.1617 30.617 37.8217L30.1219 38.6467C35.1819 37.455 38.977 32.9084 38.977 27.4817C38.977 26.73 39.6003 26.1067 40.352 26.1067C41.1036 26.1067 41.727 26.73 41.727 27.4817C41.7086 35.3284 35.3286 41.7084 27.5003 41.7084Z" fill="#D73227"/>
<path id="Vector_5" d="M3.66675 17.875C2.91508 17.875 2.29175 17.2516 2.29175 16.5C2.29175 8.67163 8.67175 2.29163 16.5001 2.29163C16.9951 2.29163 17.4534 2.56662 17.6917 2.98829C17.9301 3.42829 17.9301 3.94162 17.6734 4.38162L15.7484 7.58996C15.3634 8.23162 14.5201 8.45163 13.8601 8.06663C13.2001 7.68163 12.9984 6.8383 13.3834 6.1783L13.8784 5.35329C8.81843 6.54496 5.0234 11.0916 5.0234 16.5183C5.04173 17.2516 4.41841 17.875 3.66675 17.875Z" fill="#D73227"/>
</g>
</g>
</svg>
