<svg width="44" height="44" viewBox="0 0 44 44" fill="none" xmlns="http://www.w3.org/2000/svg">
<g id="vuesax/outline/percentage-square">
<g id="percentage-square">
<path id="Vector" d="M27.5001 41.7083H16.5001C6.54508 41.7083 2.29175 37.455 2.29175 27.5V16.5C2.29175 6.54496 6.54508 2.29163 16.5001 2.29163H27.5001C37.4551 2.29163 41.7084 6.54496 41.7084 16.5V27.5C41.7084 37.455 37.4551 41.7083 27.5001 41.7083ZM16.5001 5.04163C8.04841 5.04163 5.04175 8.04829 5.04175 16.5V27.5C5.04175 35.9516 8.04841 38.9583 16.5001 38.9583H27.5001C35.9517 38.9583 38.9584 35.9516 38.9584 27.5V16.5C38.9584 8.04829 35.9517 5.04163 27.5001 5.04163H16.5001Z" fill="#D73227"/>
<path id="Vector_2" d="M15.7112 29.3701C15.3629 29.3701 15.0146 29.2417 14.7396 28.9667C14.2079 28.4351 14.2079 27.5551 14.7396 27.0234L26.7479 15.0151C27.2795 14.4834 28.1595 14.4834 28.6912 15.0151C29.2229 15.5467 29.2229 16.4267 28.6912 16.9584L16.6829 28.9667C16.4079 29.2417 16.0596 29.3701 15.7112 29.3701Z" fill="#D73227"/>
<path id="Vector_3" d="M16.4633 20.3684C14.4649 20.3684 12.8333 18.7368 12.8333 16.7384C12.8333 14.7401 14.4649 13.1084 16.4633 13.1084C18.4616 13.1084 20.0932 14.7401 20.0932 16.7384C20.0932 18.7368 18.4616 20.3684 16.4633 20.3684ZM16.4633 15.8767C15.9866 15.8767 15.5833 16.2618 15.5833 16.7568C15.5833 17.2518 15.9683 17.6367 16.4633 17.6367C16.9583 17.6367 17.3432 17.2518 17.3432 16.7568C17.3432 16.2618 16.9399 15.8767 16.4633 15.8767Z" fill="#D73227"/>
<path id="Vector_4" d="M28.4535 30.8733C26.4551 30.8733 24.8235 29.2416 24.8235 27.2432C24.8235 25.2449 26.4551 23.6133 28.4535 23.6133C30.4518 23.6133 32.0835 25.2449 32.0835 27.2432C32.0835 29.2416 30.4518 30.8733 28.4535 30.8733ZM28.4535 26.3816C27.9768 26.3816 27.5735 26.7666 27.5735 27.2616C27.5735 27.7566 27.9585 28.1416 28.4535 28.1416C28.9485 28.1416 29.3335 27.7566 29.3335 27.2616C29.3335 26.7666 28.9485 26.3816 28.4535 26.3816Z" fill="#D73227"/>
</g>
</g>
</svg>
