<svg width="24" height="24" viewBox="0 0 24 24" fill="none" xmlns="http://www.w3.org/2000/svg">
<path d="M6.8894 13.3728L6.0734 4.43376C6.05963 4.28191 5.98621 4.14171 5.86924 4.04391C5.75227 3.9461 5.60129 3.89867 5.4494 3.912L2.73596 4.1592" stroke="#12181F" stroke-width="1.5" stroke-linecap="round" stroke-linejoin="round"/>
<path d="M6.33594 7.056H21.2639C20.8718 8.952 20.0879 12.744 20.0879 12.744" stroke="#12181F" stroke-width="1.5" stroke-linejoin="round"/>
<path d="M20 13H7" stroke="#12181F" stroke-width="1.5" stroke-linecap="round" stroke-linejoin="round"/>
<path d="M9.35277 16.0565C9.27837 16.0474 9.20541 16.0354 9.13341 16.0205L9.10893 16.0152C7.90605 15.7546 6.99693 14.7053 6.89709 13.4314" stroke="#12181F" stroke-width="1.6" stroke-linecap="round" stroke-linejoin="round"/>
<path d="M9.33545 16.0579H17.5434" stroke="#12181F" stroke-width="1.5" stroke-linejoin="round"/>
<path d="M9.23951 20.0899C10.3529 20.0899 11.2555 19.1873 11.2555 18.0739C11.2555 16.9605 10.3529 16.0579 9.23951 16.0579C8.1261 16.0579 7.22351 16.9605 7.22351 18.0739C7.22351 19.1873 8.1261 20.0899 9.23951 20.0899Z" stroke="#12181F" stroke-width="1.5" stroke-linejoin="round"/>
<path d="M17.4475 20.0899C18.5609 20.0899 19.4635 19.1873 19.4635 18.0739C19.4635 16.9605 18.5609 16.0579 17.4475 16.0579C16.3341 16.0579 15.4315 16.9605 15.4315 18.0739C15.4315 19.1873 16.3341 20.0899 17.4475 20.0899Z" stroke="#12181F" stroke-width="1.5" stroke-linejoin="round"/>
</svg>
