<svg width="26" height="26" viewBox="0 0 26 26" fill="none" xmlns="http://www.w3.org/2000/svg">
<path d="M7.46355 14.4872L6.57955 4.80323C6.56463 4.63872 6.48509 4.48685 6.35837 4.38089C6.23165 4.27494 6.0681 4.22355 5.90355 4.23799L2.96399 4.50579" stroke="#D73227" stroke-width="1.5" stroke-linecap="round" stroke-linejoin="round"/>
<path d="M6.86401 7.64398L23.036 7.64398C22.6112 9.69798 21.762 13.806 21.762 13.806" stroke="#D73227" stroke-width="1.5" stroke-linejoin="round"/>
<path d="M21.6666 14.0833L7.58325 14.0833" stroke="#D73227" stroke-width="1.5" stroke-linecap="round" stroke-linejoin="round"/>
<path d="M10.1322 17.3945C10.0516 17.3846 9.9726 17.3716 9.8946 17.3555L9.86808 17.3498C8.56496 17.0674 7.58008 15.9307 7.47192 14.5506" stroke="#D73227" stroke-width="1.6" stroke-linecap="round" stroke-linejoin="round"/>
<path d="M10.1135 17.3961H19.0055" stroke="#D73227" stroke-width="1.5" stroke-linejoin="round"/>
<path d="M10.0094 21.7641C11.2156 21.7641 12.1934 20.7862 12.1934 19.5801C12.1934 18.3739 11.2156 17.3961 10.0094 17.3961C8.80325 17.3961 7.82544 18.3739 7.82544 19.5801C7.82544 20.7862 8.80325 21.7641 10.0094 21.7641Z" stroke="#D73227" stroke-width="1.5" stroke-linejoin="round"/>
<path d="M18.9014 21.7641C20.1076 21.7641 21.0854 20.7862 21.0854 19.5801C21.0854 18.3739 20.1076 17.3961 18.9014 17.3961C17.6952 17.3961 16.7174 18.3739 16.7174 19.5801C16.7174 20.7862 17.6952 21.7641 18.9014 21.7641Z" stroke="#D73227" stroke-width="1.5" stroke-linejoin="round"/>
</svg>
