<svg width="40" height="40" viewBox="0 0 40 40" fill="none" xmlns="http://www.w3.org/2000/svg">
<path d="M11.4825 22.288L10.1225 7.38961C10.0995 7.13652 9.97714 6.90287 9.78219 6.73986C9.58724 6.57685 9.33561 6.49779 9.08246 6.52L4.56006 6.93201" stroke="#232D38" stroke-width="1.6" stroke-linecap="round" stroke-linejoin="round"/>
<path d="M10.5601 11.76H35.4401C34.7865 14.92 33.4801 21.24 33.4801 21.24" stroke="#232D38" stroke-width="1.6" stroke-linejoin="round"/>
<path d="M33.4792 21.2432L11.4792 22.2832" stroke="#232D38" stroke-width="1.6" stroke-linejoin="round"/>
<path d="M15.588 26.7608C15.464 26.7456 15.3424 26.7256 15.2224 26.7008L15.1816 26.692C13.1768 26.2576 11.6616 24.5088 11.4952 22.3856" stroke="#232D38" stroke-width="1.6" stroke-linecap="round" stroke-linejoin="round"/>
<path d="M15.5592 26.7632H29.2392" stroke="#232D38" stroke-width="1.6" stroke-linejoin="round"/>
<path d="M15.3993 33.4832C17.255 33.4832 18.7593 31.9789 18.7593 30.1232C18.7593 28.2675 17.255 26.7632 15.3993 26.7632C13.5436 26.7632 12.0393 28.2675 12.0393 30.1232C12.0393 31.9789 13.5436 33.4832 15.3993 33.4832Z" stroke="#232D38" stroke-width="1.6" stroke-linejoin="round"/>
<path d="M29.0792 33.4832C30.9349 33.4832 32.4392 31.9789 32.4392 30.1232C32.4392 28.2675 30.9349 26.7632 29.0792 26.7632C27.2236 26.7632 25.7192 28.2675 25.7192 30.1232C25.7192 31.9789 27.2236 33.4832 29.0792 33.4832Z" stroke="#232D38" stroke-width="1.6" stroke-linejoin="round"/>
</svg>
