<svg width="40" height="40" viewBox="0 0 40 40" fill="none" xmlns="http://www.w3.org/2000/svg">
<path d="M37.6593 21.7224H23.4497M29.7297 11.5424C29.8186 11.4028 29.9414 11.2879 30.0865 11.2083C30.2317 11.1287 30.3945 11.087 30.5601 11.087C30.7256 11.087 30.8885 11.1287 31.0336 11.2083C31.1787 11.2879 31.3015 11.4028 31.3905 11.5424L37.5409 21.2072C37.641 21.3654 37.6943 21.5488 37.6945 21.736C37.6945 22.9784 37.3545 24.8304 36.2969 26.4032C35.2049 28.0288 33.3705 29.3096 30.5601 29.3096C27.7497 29.3096 25.9153 28.0296 24.8233 26.4032C23.7657 24.8304 23.4257 22.9784 23.4257 21.736C23.4258 21.5488 23.4791 21.3654 23.5793 21.2072L29.7297 11.5424Z" stroke="#232D38" stroke-width="1.6" stroke-linecap="round" stroke-linejoin="round"/>
<path d="M16.5393 25.7224H2.32966M8.60966 15.5424C8.69865 15.4028 8.82139 15.2879 8.96653 15.2083C9.11167 15.1287 9.27453 15.087 9.44006 15.087C9.6056 15.087 9.76846 15.1287 9.9136 15.2083C10.0587 15.2879 10.1815 15.4028 10.2705 15.5424L16.4209 25.2072C16.521 25.3654 16.5743 25.5488 16.5745 25.736C16.5745 26.9784 16.2345 28.8304 15.1769 30.4032C14.0849 32.0288 12.2505 33.3096 9.44006 33.3096C6.62966 33.3096 4.79526 32.0296 3.70326 30.4032C2.64566 28.8304 2.30566 26.9784 2.30566 25.736C2.30585 25.5488 2.35911 25.3654 2.45926 25.2072L8.60966 15.5424Z" stroke="#232D38" stroke-width="1.6" stroke-linecap="round" stroke-linejoin="round"/>
<path d="M15.4241 11.5496L9.20087 12.7528" stroke="#232D38" stroke-width="1.6" stroke-linejoin="round"/>
<path d="M30.5184 8.6304L24.2072 9.8512" stroke="#232D38" stroke-width="1.6" stroke-linejoin="round"/>
<path d="M19.8401 14.5056C17.6822 14.5056 15.9329 12.7563 15.9329 10.5984C15.9329 8.44051 17.6822 6.69119 19.8401 6.69119C21.998 6.69119 23.7473 8.44051 23.7473 10.5984C23.7473 12.7563 21.998 14.5056 19.8401 14.5056Z" stroke="#232D38" stroke-width="1.6" stroke-linecap="round" stroke-linejoin="round"/>
</svg>
