<svg width="24" height="24" viewBox="0 0 24 24" fill="none" xmlns="http://www.w3.org/2000/svg">
<path d="M1.0222 14.0037H9.98486M6.02377 7.29989C5.96764 7.20797 5.89023 7.13231 5.79868 7.07989C5.70714 7.02748 5.60441 7 5.5 7C5.39559 7 5.29287 7.02748 5.20132 7.07989C5.10977 7.13231 5.03236 7.20797 4.97623 7.29989L1.09688 13.6644C1.03371 13.7686 1.00012 13.8893 1 14.0126C1 14.8308 1.21445 16.0503 1.88153 17.0861C2.57031 18.1566 3.72735 19 5.5 19C7.27265 19 8.42969 18.1571 9.11847 17.0861C9.78555 16.0503 10 14.8308 10 14.0126C9.99988 13.8893 9.96629 13.7686 9.90312 13.6644L6.02377 7.29989Z" stroke="#12181F" stroke-width="1.5" stroke-linecap="round" stroke-linejoin="round"/>
<path d="M14.0222 16.0037H22.9849M19.0238 9.29989C18.9676 9.20797 18.8902 9.13231 18.7987 9.07989C18.7071 9.02748 18.6044 9 18.5 9C18.3956 9 18.2929 9.02748 18.2013 9.07989C18.1098 9.13231 18.0324 9.20797 17.9762 9.29989L14.0969 15.6644C14.0337 15.7686 14.0001 15.8893 14 16.0126C14 16.8308 14.2145 18.0503 14.8815 19.0861C15.5703 20.1566 16.7273 21 18.5 21C20.2727 21 21.4297 20.1571 22.1185 19.0861C22.7855 18.0503 23 16.8308 23 16.0126C22.9999 15.8893 22.9663 15.7686 22.9031 15.6644L19.0238 9.29989Z" stroke="#12181F" stroke-width="1.5" stroke-linecap="round" stroke-linejoin="round"/>
<path d="M15 7L21 8" stroke="#12181F" stroke-width="1.5" stroke-linejoin="round"/>
<path d="M4 5L9 6" stroke="#12181F" stroke-width="1.5" stroke-linejoin="round"/>
<path d="M12 9C13.6569 9 15 7.65685 15 6C15 4.34315 13.6569 3 12 3C10.3431 3 9 4.34315 9 6C9 7.65685 10.3431 9 12 9Z" fill="white" stroke="#12181F" stroke-width="1.5" stroke-linecap="round" stroke-linejoin="round"/>
</svg>
