<svg width="30" height="24" viewBox="0 0 30 24" fill="none" xmlns="http://www.w3.org/2000/svg">
<g id="Group">
<path id="Vector" d="M0.872398 13.3779H12.2401M7.21608 5.23392C7.14489 5.12225 7.0467 5.03033 6.93059 4.96666C6.81448 4.90298 6.68419 4.8696 6.55176 4.8696C6.41933 4.8696 6.28904 4.90298 6.17293 4.96666C6.05682 5.03033 5.95863 5.12225 5.88744 5.23392L0.967118 12.9658C0.886992 13.0923 0.844385 13.239 0.844238 13.3888C0.844238 14.3827 1.11624 15.8643 1.96232 17.1226C2.83592 18.423 4.30344 19.4477 6.55176 19.4477C8.80008 19.4477 10.2676 18.4237 11.1412 17.1226C11.9873 15.8643 12.2593 14.3827 12.2593 13.3888C12.2591 13.239 12.2165 13.0923 12.1364 12.9658L7.21608 5.23392Z" stroke="#AEBAC9" stroke-opacity="0.37" stroke-width="1.6" stroke-linecap="round" stroke-linejoin="round"/>
<path id="Vector_2" d="M17.7684 16.5779H29.1361M24.1121 8.43392C24.0409 8.32226 23.9427 8.23034 23.8266 8.16666C23.7105 8.10298 23.5802 8.0696 23.4478 8.0696C23.3153 8.0696 23.185 8.10298 23.0689 8.16666C22.9528 8.23034 22.8546 8.32226 22.7834 8.43392L17.8631 16.1658C17.783 16.2923 17.7404 16.439 17.7402 16.5888C17.7402 17.5827 18.0122 19.0643 18.8583 20.3226C19.7319 21.623 21.1994 22.6477 23.4478 22.6477C25.6961 22.6477 27.1636 21.6237 28.0372 20.3226C28.8833 19.0643 29.1553 17.5827 29.1553 16.5888C29.1551 16.439 29.1125 16.2923 29.0324 16.1658L24.1121 8.43392Z" stroke="#AEBAC9" stroke-opacity="0.37" stroke-width="1.6" stroke-linecap="round" stroke-linejoin="round"/>
<path id="Vector_3" d="M18.6606 5.23968L23.6392 6.20224" stroke="#AEBAC9" stroke-opacity="0.37" stroke-width="1.6" stroke-linejoin="round"/>
<path id="Vector_4" d="M6.58496 2.90432L11.6339 3.88096" stroke="#AEBAC9" stroke-opacity="0.37" stroke-width="1.6" stroke-linejoin="round"/>
<path id="Vector_5" d="M15.1277 7.60448C16.854 7.60448 18.2535 6.20503 18.2535 4.47872C18.2535 2.75241 16.854 1.35296 15.1277 1.35296C13.4014 1.35296 12.002 2.75241 12.002 4.47872C12.002 6.20503 13.4014 7.60448 15.1277 7.60448Z" stroke="#AEBAC9" stroke-opacity="0.37" stroke-width="1.6" stroke-linecap="round" stroke-linejoin="round"/>
</g>
</svg>
