<svg width="40" height="40" viewBox="0 0 40 40" fill="none" xmlns="http://www.w3.org/2000/svg">
<path d="M2.34074 21.7224H16.5503M10.2703 11.5424C10.1814 11.4028 10.0586 11.2879 9.91348 11.2083C9.76834 11.1287 9.60548 11.087 9.43994 11.087C9.27441 11.087 9.11155 11.1287 8.9664 11.2083C8.82126 11.2879 8.69853 11.4028 8.60954 11.5424L2.45914 21.2072C2.35898 21.3654 2.30573 21.5488 2.30554 21.736C2.30554 22.9784 2.64554 24.8304 3.70314 26.4032C4.79514 28.0288 6.62954 29.3096 9.43994 29.3096C12.2503 29.3096 14.0847 28.0296 15.1767 26.4032C16.2343 24.8304 16.5743 22.9784 16.5743 21.736C16.5742 21.5488 16.5209 21.3654 16.4207 21.2072L10.2703 11.5424Z" stroke="#232D38" stroke-width="1.6" stroke-linecap="round" stroke-linejoin="round"/>
<path d="M23.4607 25.7224H37.6703M31.3903 15.5424C31.3014 15.4028 31.1786 15.2879 31.0335 15.2083C30.8883 15.1287 30.7255 15.087 30.5599 15.087C30.3944 15.087 30.2315 15.1287 30.0864 15.2083C29.9413 15.2879 29.8185 15.4028 29.7295 15.5424L23.5791 25.2072C23.479 25.3654 23.4257 25.5488 23.4255 25.736C23.4255 26.9784 23.7655 28.8304 24.8231 30.4032C25.9151 32.0288 27.7495 33.3096 30.5599 33.3096C33.3703 33.3096 35.2047 32.0296 36.2967 30.4032C37.3543 28.8304 37.6943 26.9784 37.6943 25.736C37.6942 25.5488 37.6409 25.3654 37.5407 25.2072L31.3903 15.5424Z" stroke="#232D38" stroke-width="1.6" stroke-linecap="round" stroke-linejoin="round"/>
<path d="M24.5759 11.5496L30.7991 12.7528" stroke="#232D38" stroke-width="1.6" stroke-linejoin="round"/>
<path d="M9.48157 8.6304L15.7928 9.8512" stroke="#232D38" stroke-width="1.6" stroke-linejoin="round"/>
<path d="M20.1599 14.5056C22.3178 14.5056 24.0671 12.7563 24.0671 10.5984C24.0671 8.44051 22.3178 6.69119 20.1599 6.69119C18.002 6.69119 16.2527 8.44051 16.2527 10.5984C16.2527 12.7563 18.002 14.5056 20.1599 14.5056Z" fill="white" stroke="#232D38" stroke-width="1.6" stroke-linecap="round" stroke-linejoin="round"/>
</svg>
