<svg width="12" height="12" viewBox="0 0 12 12" fill="none" xmlns="http://www.w3.org/2000/svg">
<path d="M1.57988 2.20999C1.47988 2.38999 1.2499 2.45501 1.0699 2.35501C0.889896 2.25501 0.824877 2.025 0.924877 1.845L1.57988 2.20999Z" fill="#0F9141" stroke="#0F9141"/>
<mask id="path-2-inside-1_247_23394" fill="white">
<path d="M9.5 10.375H9C8.795 10.375 8.625 10.205 8.625 10C8.625 9.655 8.345 9.375 8 9.375C7.655 9.375 7.375 9.655 7.375 10C7.375 10.205 7.205 10.375 7 10.375H5C4.795 10.375 4.625 10.205 4.625 10C4.625 9.655 4.345 9.375 4 9.375C3.655 9.375 3.375 9.655 3.375 10C3.375 10.205 3.205 10.375 3 10.375H2.5C1.465 10.375 0.625 9.535 0.625 8.5C0.625 8.295 0.795 8.125 1 8.125C1.205 8.125 1.375 8.295 1.375 8.5C1.375 9.12 1.88 9.625 2.5 9.625H2.67499C2.83999 9.05 3.37 8.625 4 8.625C4.63 8.625 5.16001 9.05 5.32501 9.625H6.67999C6.84499 9.05 7.375 8.625 8.005 8.625C8.635 8.625 9.16499 9.05 9.32999 9.625H9.5C10.12 9.625 10.625 9.12 10.625 8.5V7.375H9.5C9.02 7.375 8.625 6.98 8.625 6.5V5C8.625 4.52 9.015 4.125 9.5 4.125L8.965 3.19C8.855 2.995 8.64501 2.875 8.42001 2.875H7.875V6C7.875 6.76 7.26 7.375 6.5 7.375H6C5.795 7.375 5.625 7.205 5.625 7C5.625 6.795 5.795 6.625 6 6.625H6.5C6.845 6.625 7.125 6.345 7.125 6V2.5C7.125 2.295 7.295 2.125 7.5 2.125H8.42001C8.91501 2.125 9.36999 2.39001 9.61499 2.82001L10.47 4.315C10.535 4.43 10.535 4.575 10.47 4.69C10.405 4.805 10.28 4.875 10.145 4.875H9.5C9.43 4.875 9.375 4.93 9.375 5V6.5C9.375 6.57 9.43 6.625 9.5 6.625H11C11.205 6.625 11.375 6.795 11.375 7V8.5C11.375 9.535 10.535 10.375 9.5 10.375Z"/>
</mask>
<path d="M9.5 10.375H9C8.795 10.375 8.625 10.205 8.625 10C8.625 9.655 8.345 9.375 8 9.375C7.655 9.375 7.375 9.655 7.375 10C7.375 10.205 7.205 10.375 7 10.375H5C4.795 10.375 4.625 10.205 4.625 10C4.625 9.655 4.345 9.375 4 9.375C3.655 9.375 3.375 9.655 3.375 10C3.375 10.205 3.205 10.375 3 10.375H2.5C1.465 10.375 0.625 9.535 0.625 8.5C0.625 8.295 0.795 8.125 1 8.125C1.205 8.125 1.375 8.295 1.375 8.5C1.375 9.12 1.88 9.625 2.5 9.625H2.67499C2.83999 9.05 3.37 8.625 4 8.625C4.63 8.625 5.16001 9.05 5.32501 9.625H6.67999C6.84499 9.05 7.375 8.625 8.005 8.625C8.635 8.625 9.16499 9.05 9.32999 9.625H9.5C10.12 9.625 10.625 9.12 10.625 8.5V7.375H9.5C9.02 7.375 8.625 6.98 8.625 6.5V5C8.625 4.52 9.015 4.125 9.5 4.125L8.965 3.19C8.855 2.995 8.64501 2.875 8.42001 2.875H7.875V6C7.875 6.76 7.26 7.375 6.5 7.375H6C5.795 7.375 5.625 7.205 5.625 7C5.625 6.795 5.795 6.625 6 6.625H6.5C6.845 6.625 7.125 6.345 7.125 6V2.5C7.125 2.295 7.295 2.125 7.5 2.125H8.42001C8.91501 2.125 9.36999 2.39001 9.61499 2.82001L10.47 4.315C10.535 4.43 10.535 4.575 10.47 4.69C10.405 4.805 10.28 4.875 10.145 4.875H9.5C9.43 4.875 9.375 4.93 9.375 5V6.5C9.375 6.57 9.43 6.625 9.5 6.625H11C11.205 6.625 11.375 6.795 11.375 7V8.5C11.375 9.535 10.535 10.375 9.5 10.375Z" fill="#0F9141"/>
<path d="M2.67499 9.625V10.625H3.42839L3.6362 9.90082L2.67499 9.625ZM5.32501 9.625L4.3638 9.90082L4.57161 10.625H5.32501V9.625ZM6.67999 9.625V10.625H7.43339L7.6412 9.90082L6.67999 9.625ZM9.32999 9.625L8.36878 9.90082L8.57659 10.625H9.32999V9.625ZM10.625 7.375H11.625V6.375H10.625V7.375ZM9.5 4.125V5.125H11.2243L10.368 3.62836L9.5 4.125ZM8.965 3.19L8.094 3.68133L8.09704 3.68664L8.965 3.19ZM7.875 2.875V1.875H6.875V2.875H7.875ZM9.61499 2.82001L8.74612 3.31506L8.74693 3.31646L9.61499 2.82001ZM10.47 4.315L11.3406 3.82294L11.3381 3.81854L10.47 4.315ZM9.5 9.375H9V11.375H9.5V9.375ZM9 9.375C9.34728 9.375 9.625 9.65272 9.625 10H7.625C7.625 10.7573 8.24272 11.375 9 11.375V9.375ZM9.625 10C9.625 9.10272 8.89728 8.375 8 8.375V10.375C7.79272 10.375 7.625 10.2073 7.625 10H9.625ZM8 8.375C7.10272 8.375 6.375 9.10272 6.375 10H8.375C8.375 10.2073 8.20728 10.375 8 10.375V8.375ZM6.375 10C6.375 9.65272 6.65272 9.375 7 9.375V11.375C7.75728 11.375 8.375 10.7573 8.375 10H6.375ZM7 9.375H5V11.375H7V9.375ZM5 9.375C5.34728 9.375 5.625 9.65272 5.625 10H3.625C3.625 10.7573 4.24272 11.375 5 11.375V9.375ZM5.625 10C5.625 9.10272 4.89728 8.375 4 8.375V10.375C3.79272 10.375 3.625 10.2073 3.625 10H5.625ZM4 8.375C3.10272 8.375 2.375 9.10272 2.375 10H4.375C4.375 10.2073 4.20728 10.375 4 10.375V8.375ZM2.375 10C2.375 9.65272 2.65272 9.375 3 9.375V11.375C3.75728 11.375 4.375 10.7573 4.375 10H2.375ZM3 9.375H2.5V11.375H3V9.375ZM2.5 9.375C2.01728 9.375 1.625 8.98272 1.625 8.5H-0.375C-0.375 10.0873 0.912715 11.375 2.5 11.375V9.375ZM1.625 8.5C1.625 8.84728 1.34728 9.125 1 9.125V7.125C0.242715 7.125 -0.375 7.74272 -0.375 8.5H1.625ZM1 9.125C0.652715 9.125 0.375 8.84728 0.375 8.5H2.375C2.375 7.74272 1.75728 7.125 1 7.125V9.125ZM0.375 8.5C0.375 9.67228 1.32772 10.625 2.5 10.625V8.625C2.43228 8.625 2.375 8.56772 2.375 8.5H0.375ZM2.5 10.625H2.67499V8.625H2.5V10.625ZM3.6362 9.90082C3.6825 9.73946 3.83159 9.625 4 9.625V7.625C2.90841 7.625 1.99747 8.36054 1.71378 9.34918L3.6362 9.90082ZM4 9.625C4.16841 9.625 4.3175 9.73946 4.3638 9.90082L6.28622 9.34918C6.00253 8.36054 5.09159 7.625 4 7.625V9.625ZM5.32501 10.625H6.67999V8.625H5.32501V10.625ZM7.6412 9.90082C7.68751 9.73946 7.83659 9.625 8.005 9.625V7.625C6.91342 7.625 6.00248 8.36054 5.71878 9.34918L7.6412 9.90082ZM8.005 9.625C8.17339 9.625 8.32247 9.73943 8.36878 9.90082L10.2912 9.34918C10.0075 8.36057 9.09662 7.625 8.005 7.625V9.625ZM9.32999 10.625H9.5V8.625H9.32999V10.625ZM9.5 10.625C10.6723 10.625 11.625 9.67228 11.625 8.5H9.625C9.625 8.56772 9.56772 8.625 9.5 8.625V10.625ZM11.625 8.5V7.375H9.625V8.5H11.625ZM10.625 6.375H9.5V8.375H10.625V6.375ZM9.5 6.375C9.53951 6.375 9.57118 6.39196 9.58961 6.41039C9.60804 6.42882 9.625 6.46049 9.625 6.5H7.625C7.625 7.53228 8.46772 8.375 9.5 8.375V6.375ZM9.625 6.5V5H7.625V6.5H9.625ZM9.625 5C9.625 5.06856 9.571 5.125 9.5 5.125V3.125C8.459 3.125 7.625 3.97144 7.625 5H9.625ZM10.368 3.62836L9.83295 2.69336L8.09704 3.68664L8.63204 4.62164L10.368 3.62836ZM9.83597 2.69868C9.54426 2.18155 8.99675 1.875 8.42001 1.875V3.875C8.29328 3.875 8.16573 3.80845 8.09402 3.68132L9.83597 2.69868ZM8.42001 1.875H7.875V3.875H8.42001V1.875ZM6.875 2.875V6H8.875V2.875H6.875ZM6.875 6C6.875 6.20772 6.70772 6.375 6.5 6.375V8.375C7.81228 8.375 8.875 7.31228 8.875 6H6.875ZM6.5 6.375H6V8.375H6.5V6.375ZM6 6.375C6.34728 6.375 6.625 6.65272 6.625 7H4.625C4.625 7.75728 5.24272 8.375 6 8.375V6.375ZM6.625 7C6.625 7.34728 6.34728 7.625 6 7.625V5.625C5.24272 5.625 4.625 6.24272 4.625 7H6.625ZM6 7.625H6.5V5.625H6V7.625ZM6.5 7.625C7.39728 7.625 8.125 6.89728 8.125 6H6.125C6.125 5.79272 6.29272 5.625 6.5 5.625V7.625ZM8.125 6V2.5H6.125V6H8.125ZM8.125 2.5C8.125 2.84728 7.84728 3.125 7.5 3.125V1.125C6.74272 1.125 6.125 1.74272 6.125 2.5H8.125ZM7.5 3.125H8.42001V1.125H7.5V3.125ZM8.42001 3.125C8.55492 3.125 8.67861 3.19656 8.74613 3.31506L10.4839 2.32496C10.0614 1.58345 9.27511 1.125 8.42001 1.125V3.125ZM8.74693 3.31646L9.60194 4.81146L11.3381 3.81854L10.4831 2.32355L8.74693 3.31646ZM9.59944 4.80706C9.49186 4.61672 9.49186 4.38828 9.59944 4.19795L11.3406 5.18206C11.5781 4.76172 11.5781 4.24328 11.3406 3.82295L9.59944 4.80706ZM9.59944 4.19795C9.72135 3.98225 9.9392 3.875 10.145 3.875V5.875C10.6208 5.875 11.0887 5.62775 11.3406 5.18206L9.59944 4.19795ZM10.145 3.875H9.5V5.875H10.145V3.875ZM9.5 3.875C8.87772 3.875 8.375 4.37772 8.375 5H10.375C10.375 5.48228 9.98228 5.875 9.5 5.875V3.875ZM8.375 5V6.5H10.375V5H8.375ZM8.375 6.5C8.375 7.12228 8.87772 7.625 9.5 7.625V5.625C9.98228 5.625 10.375 6.01772 10.375 6.5H8.375ZM9.5 7.625H11V5.625H9.5V7.625ZM11 7.625C10.6527 7.625 10.375 7.34728 10.375 7H12.375C12.375 6.24272 11.7573 5.625 11 5.625V7.625ZM10.375 7V8.5H12.375V7H10.375ZM10.375 8.5C10.375 8.98272 9.98272 9.375 9.5 9.375V11.375C11.0873 11.375 12.375 10.0873 12.375 8.5H10.375Z" fill="#0F9141" mask="url(#path-2-inside-1_247_23394)"/>
<mask id="path-4-inside-2_247_23394" fill="white">
<path d="M4 11.375C3.24 11.375 2.625 10.76 2.625 10C2.625 9.24 3.24 8.625 4 8.625C4.76 8.625 5.375 9.24 5.375 10C5.375 10.76 4.76 11.375 4 11.375ZM4 9.375C3.655 9.375 3.375 9.655 3.375 10C3.375 10.345 3.655 10.625 4 10.625C4.345 10.625 4.625 10.345 4.625 10C4.625 9.655 4.345 9.375 4 9.375Z"/>
</mask>
<path d="M4 11.375C3.24 11.375 2.625 10.76 2.625 10C2.625 9.24 3.24 8.625 4 8.625C4.76 8.625 5.375 9.24 5.375 10C5.375 10.76 4.76 11.375 4 11.375ZM4 9.375C3.655 9.375 3.375 9.655 3.375 10C3.375 10.345 3.655 10.625 4 10.625C4.345 10.625 4.625 10.345 4.625 10C4.625 9.655 4.345 9.375 4 9.375Z" fill="#0F9141"/>
<path d="M4 10.375C3.79228 10.375 3.625 10.2077 3.625 10H1.625C1.625 11.3123 2.68772 12.375 4 12.375V10.375ZM3.625 10C3.625 9.79228 3.79228 9.625 4 9.625V7.625C2.68772 7.625 1.625 8.68772 1.625 10H3.625ZM4 9.625C4.20772 9.625 4.375 9.79228 4.375 10H6.375C6.375 8.68772 5.31228 7.625 4 7.625V9.625ZM4.375 10C4.375 10.2077 4.20772 10.375 4 10.375V12.375C5.31228 12.375 6.375 11.3123 6.375 10H4.375ZM4 8.375C3.10272 8.375 2.375 9.10272 2.375 10H4.375C4.375 10.2073 4.20728 10.375 4 10.375V8.375ZM2.375 10C2.375 10.8973 3.10272 11.625 4 11.625V9.625C4.20728 9.625 4.375 9.79272 4.375 10H2.375ZM4 11.625C4.89728 11.625 5.625 10.8973 5.625 10H3.625C3.625 9.79272 3.79272 9.625 4 9.625V11.625ZM5.625 10C5.625 9.10272 4.89728 8.375 4 8.375V10.375C3.79272 10.375 3.625 10.2073 3.625 10H5.625Z" fill="#0F9141" mask="url(#path-4-inside-2_247_23394)"/>
<mask id="path-6-inside-3_247_23394" fill="white">
<path d="M8 11.375C7.24 11.375 6.625 10.76 6.625 10C6.625 9.24 7.24 8.625 8 8.625C8.76 8.625 9.375 9.24 9.375 10C9.375 10.76 8.76 11.375 8 11.375ZM8 9.375C7.655 9.375 7.375 9.655 7.375 10C7.375 10.345 7.655 10.625 8 10.625C8.345 10.625 8.625 10.345 8.625 10C8.625 9.655 8.345 9.375 8 9.375Z"/>
</mask>
<path d="M8 11.375C7.24 11.375 6.625 10.76 6.625 10C6.625 9.24 7.24 8.625 8 8.625C8.76 8.625 9.375 9.24 9.375 10C9.375 10.76 8.76 11.375 8 11.375ZM8 9.375C7.655 9.375 7.375 9.655 7.375 10C7.375 10.345 7.655 10.625 8 10.625C8.345 10.625 8.625 10.345 8.625 10C8.625 9.655 8.345 9.375 8 9.375Z" fill="#0F9141"/>
<path d="M8 10.375C7.79228 10.375 7.625 10.2077 7.625 10H5.625C5.625 11.3123 6.68772 12.375 8 12.375V10.375ZM7.625 10C7.625 9.79228 7.79228 9.625 8 9.625V7.625C6.68772 7.625 5.625 8.68772 5.625 10H7.625ZM8 9.625C8.20772 9.625 8.375 9.79228 8.375 10H10.375C10.375 8.68772 9.31228 7.625 8 7.625V9.625ZM8.375 10C8.375 10.2077 8.20772 10.375 8 10.375V12.375C9.31228 12.375 10.375 11.3123 10.375 10H8.375ZM8 8.375C7.10272 8.375 6.375 9.10272 6.375 10H8.375C8.375 10.2073 8.20728 10.375 8 10.375V8.375ZM6.375 10C6.375 10.8973 7.10272 11.625 8 11.625V9.625C8.20728 9.625 8.375 9.79272 8.375 10H6.375ZM8 11.625C8.89728 11.625 9.625 10.8973 9.625 10H7.625C7.625 9.79272 7.79272 9.625 8 9.625V11.625ZM9.625 10C9.625 9.10272 8.89728 8.375 8 8.375V10.375C7.79272 10.375 7.625 10.2073 7.625 10H9.625Z" fill="#0F9141" mask="url(#path-6-inside-3_247_23394)"/>
<mask id="path-8-inside-4_247_23394" fill="white">
<path d="M11 7.375H9.5C9.02 7.375 8.625 6.98 8.625 6.5V5C8.625 4.52 9.02 4.125 9.5 4.125H10.145C10.28 4.125 10.405 4.195 10.47 4.315L11.325 5.815C11.355 5.87 11.375 5.935 11.375 6V7C11.375 7.205 11.205 7.375 11 7.375ZM9.5 4.875C9.43 4.875 9.375 4.93 9.375 5V6.5C9.375 6.57 9.43 6.625 9.5 6.625H10.625V6.10001L9.92499 4.875H9.5Z"/>
</mask>
<path d="M11 7.375H9.5C9.02 7.375 8.625 6.98 8.625 6.5V5C8.625 4.52 9.02 4.125 9.5 4.125H10.145C10.28 4.125 10.405 4.195 10.47 4.315L11.325 5.815C11.355 5.87 11.375 5.935 11.375 6V7C11.375 7.205 11.205 7.375 11 7.375ZM9.5 4.875C9.43 4.875 9.375 4.93 9.375 5V6.5C9.375 6.57 9.43 6.625 9.5 6.625H10.625V6.10001L9.92499 4.875H9.5Z" fill="#0F9141"/>
<path d="M10.47 4.315L9.59071 4.79129L9.59587 4.8008L9.60123 4.81021L10.47 4.315ZM11.325 5.815L12.2029 5.33615L12.1984 5.32793L12.1938 5.31979L11.325 5.815ZM10.625 6.625V7.625H11.625V6.625H10.625ZM10.625 6.10001H11.625V5.83444L11.4932 5.60386L10.625 6.10001ZM9.92499 4.875L10.7932 4.37886L10.5053 3.875H9.92499V4.875ZM11 6.375H9.5V8.375H11V6.375ZM9.5 6.375C9.53951 6.375 9.57118 6.39196 9.58961 6.41039C9.60804 6.42882 9.625 6.46049 9.625 6.5H7.625C7.625 7.53228 8.46772 8.375 9.5 8.375V6.375ZM9.625 6.5V5H7.625V6.5H9.625ZM9.625 5C9.625 5.03951 9.60804 5.07118 9.58961 5.08961C9.57118 5.10804 9.53951 5.125 9.5 5.125V3.125C8.46772 3.125 7.625 3.96772 7.625 5H9.625ZM9.5 5.125H10.145V3.125H9.5V5.125ZM10.145 5.125C9.93384 5.125 9.71021 5.0119 9.59071 4.79129L11.3493 3.83872C11.0998 3.3781 10.6261 3.125 10.145 3.125V5.125ZM9.60123 4.81021L10.4562 6.31021L12.1938 5.31979L11.3388 3.81979L9.60123 4.81021ZM10.4471 6.29385C10.413 6.23133 10.375 6.13285 10.375 6H12.375C12.375 5.73715 12.297 5.50868 12.2029 5.33615L10.4471 6.29385ZM10.375 6V7H12.375V6H10.375ZM10.375 7C10.375 6.65272 10.6527 6.375 11 6.375V8.375C11.7573 8.375 12.375 7.75728 12.375 7H10.375ZM9.5 3.875C8.87772 3.875 8.375 4.37772 8.375 5H10.375C10.375 5.48228 9.98228 5.875 9.5 5.875V3.875ZM8.375 5V6.5H10.375V5H8.375ZM8.375 6.5C8.375 7.12228 8.87772 7.625 9.5 7.625V5.625C9.98228 5.625 10.375 6.01772 10.375 6.5H8.375ZM9.5 7.625H10.625V5.625H9.5V7.625ZM11.625 6.625V6.10001H9.625V6.625H11.625ZM11.4932 5.60386L10.7932 4.37886L9.05675 5.37114L9.75676 6.59615L11.4932 5.60386ZM9.92499 3.875H9.5V5.875H9.92499V3.875Z" fill="#0F9141" mask="url(#path-8-inside-4_247_23394)"/>
<path d="M4 4.375H1C0.795 4.375 0.625 4.205 0.625 4C0.625 3.795 0.795 3.625 1 3.625H4C4.205 3.625 4.375 3.795 4.375 4C4.375 4.205 4.205 4.375 4 4.375Z" fill="#0F9141"/>
<path d="M3 5.875H1C0.795 5.875 0.625 5.705 0.625 5.5C0.625 5.295 0.795 5.125 1 5.125H3C3.205 5.125 3.375 5.295 3.375 5.5C3.375 5.705 3.205 5.875 3 5.875Z" fill="#0F9141"/>
<path d="M2 7.375H1C0.795 7.375 0.625 7.205 0.625 7C0.625 6.795 0.795 6.625 1 6.625H2C2.205 6.625 2.375 6.795 2.375 7C2.375 7.205 2.205 7.375 2 7.375Z" fill="#0F9141"/>
</svg>
