<svg width="12" height="13" viewBox="0 0 12 13" fill="none" xmlns="http://www.w3.org/2000/svg">
<path d="M9.98511 5.6723H1.98511V9.6723C1.98511 11.1723 2.48511 11.6723 3.98511 11.6723H7.98511C9.48511 11.6723 9.98511 11.1723 9.98511 9.6723V5.6723Z" stroke="#0F9141" stroke-miterlimit="10" stroke-linecap="round" stroke-linejoin="round"/>
<path d="M10.75 4.1723V4.6723C10.75 5.2223 10.485 5.6723 9.75 5.6723H2.25C1.485 5.6723 1.25 5.2223 1.25 4.6723V4.1723C1.25 3.6223 1.485 3.1723 2.25 3.1723H9.75C10.485 3.1723 10.75 3.6223 10.75 4.1723Z" stroke="#0F9141" stroke-miterlimit="10" stroke-linecap="round" stroke-linejoin="round"/>
<path d="M5.81989 3.1723H3.05989C2.88989 2.9873 2.89489 2.7023 3.07489 2.5223L3.78489 1.8123C3.96989 1.6273 4.27489 1.6273 4.45989 1.8123L5.81989 3.1723Z" stroke="#0F9141" stroke-miterlimit="10" stroke-linecap="round" stroke-linejoin="round"/>
<path d="M8.93505 3.1723H6.17505L7.53505 1.8123C7.72005 1.6273 8.02505 1.6273 8.21005 1.8123L8.92005 2.5223C9.10005 2.7023 9.10505 2.9873 8.93505 3.1723Z" stroke="#0F9141" stroke-miterlimit="10" stroke-linecap="round" stroke-linejoin="round"/>
<path d="M4.46997 5.6723V8.2423C4.46997 8.6423 4.90997 8.8773 5.24497 8.6623L5.71497 8.3523C5.88497 8.2423 6.09997 8.2423 6.26497 8.3523L6.70997 8.6523C7.03997 8.8723 7.48497 8.6373 7.48497 8.2373V5.6723H4.46997Z" stroke="#0F9141" stroke-miterlimit="10" stroke-linecap="round" stroke-linejoin="round"/>
</svg>
