<svg width="20" height="20" viewBox="0 0 20 20" fill="none" xmlns="http://www.w3.org/2000/svg">
<g id="vuesax/outline/truck-fast">
<g id="truck-fast">
<path id="Vector" d="M12.3747 2.29163V1.79163H11.8747H4.99973C3.83314 1.79163 2.76796 2.42466 2.19737 3.43795L2.19736 3.43794L2.19597 3.44046C2.16419 3.49765 2.08593 3.52125 2.0259 3.4879C1.96873 3.45614 1.9451 3.37783 1.97846 3.31778L1.54138 3.07496L1.97763 3.31926C2.58997 2.2258 3.74894 1.54163 4.99973 1.54163H12.4997C12.5299 1.54163 12.5612 1.55391 12.5868 1.57955C12.6124 1.6052 12.6247 1.63648 12.6247 1.66663V9.99996C12.6247 10.9905 11.8236 11.7916 10.8331 11.7916H9.99973C9.96959 11.7916 9.93831 11.7793 9.91266 11.7537C9.88702 11.7281 9.87473 11.6968 9.87473 11.6666C9.87473 11.6365 9.88702 11.6052 9.91266 11.5796C9.93831 11.5539 9.96959 11.5416 9.99973 11.5416H10.8331C11.6842 11.5416 12.3747 10.8511 12.3747 9.99996V2.29163Z" fill="#0F9141" stroke="#0F9141"/>
<path id="Vector_2" d="M4.45839 16.5416H4.83509L4.939 16.1795C5.15465 15.428 5.84754 14.875 6.66675 14.875C7.48595 14.875 8.17885 15.428 8.3945 16.1795L8.4984 16.5416H8.8751H11.1334H11.5101L11.614 16.1795C11.8297 15.428 12.5226 14.875 13.3418 14.875C14.1609 14.875 14.8538 15.428 15.0695 16.1795L15.1734 16.5416H15.5501H15.8334C17.1429 16.5416 18.2084 15.4761 18.2084 14.1666V12.2916V11.7916H17.7084H15.8334C15.3096 11.7916 14.8751 11.3571 14.8751 10.8333V8.33329C14.8751 7.80757 15.3031 7.37496 15.8334 7.37496H16.6956L16.2674 6.62664L15.3772 5.07097C15.3769 5.07044 15.3766 5.0699 15.3763 5.06937C15.1019 4.58426 14.5837 4.29163 14.0334 4.29163H13.1251H12.6251V4.79163V9.99996C12.6251 10.9905 11.8239 11.7916 10.8334 11.7916H10.0001C9.96993 11.7916 9.93865 11.7793 9.91301 11.7537C9.88737 11.7281 9.87508 11.6968 9.87508 11.6666C9.87508 11.6365 9.88737 11.6052 9.91301 11.5796C9.93865 11.5539 9.96993 11.5416 10.0001 11.5416H10.8334C11.6846 11.5416 12.3751 10.8511 12.3751 9.99996V4.16663C12.3751 4.13648 12.3874 4.1052 12.413 4.07955C12.4387 4.05391 12.4699 4.04163 12.5001 4.04163H14.0334C14.6784 4.04163 15.271 4.38658 15.5906 4.9475L15.591 4.9482L17.0148 7.43766C17.0149 7.43789 17.0151 7.43812 17.0152 7.43835C17.0368 7.4773 17.0367 7.53183 17.0148 7.5706C16.9999 7.59692 16.963 7.62496 16.9084 7.62496H15.8334C15.4406 7.62496 15.1251 7.94048 15.1251 8.33329V10.8333C15.1251 11.2261 15.4406 11.5416 15.8334 11.5416H18.3334C18.3636 11.5416 18.3948 11.5539 18.4205 11.5796C18.4461 11.6052 18.4584 11.6365 18.4584 11.6666V14.1666C18.4584 15.6155 17.2823 16.7916 15.8334 16.7916H15.0001C14.9699 16.7916 14.9387 16.7793 14.913 16.7537C14.8874 16.7281 14.8751 16.6968 14.8751 16.6666C14.8751 15.8155 14.1846 15.125 13.3334 15.125C12.4823 15.125 11.7917 15.8155 11.7917 16.6666C11.7917 16.6968 11.7795 16.7281 11.7538 16.7537C11.7282 16.7793 11.6969 16.7916 11.6667 16.7916H8.33342C8.30327 16.7916 8.27199 16.7793 8.24634 16.7537C8.2207 16.7281 8.20842 16.6968 8.20842 16.6666C8.20842 15.8155 7.51789 15.125 6.66675 15.125C5.81561 15.125 5.12508 15.8155 5.12508 16.6666C5.12508 16.6968 5.1128 16.7281 5.08715 16.7537C5.06151 16.7793 5.03023 16.7916 5.00008 16.7916H4.16675C2.71789 16.7916 1.54175 15.6155 1.54175 14.1666C1.54175 14.1365 1.55403 14.1052 1.57968 14.0796C1.60532 14.0539 1.6366 14.0416 1.66675 14.0416C1.6969 14.0416 1.72818 14.0539 1.75382 14.0796C1.77946 14.1052 1.79175 14.1365 1.79175 14.1666C1.79175 15.4761 2.85727 16.5416 4.16675 16.5416H4.45839Z" fill="#0F9141" stroke="#0F9141"/>
<path id="Vector_3" d="M6.66667 18.4583C5.67614 18.4583 4.875 17.6572 4.875 16.6667C4.875 15.6761 5.67614 14.875 6.66667 14.875C7.65719 14.875 8.45833 15.6761 8.45833 16.6667C8.45833 17.6572 7.65719 18.4583 6.66667 18.4583ZM6.66667 15.125C5.81552 15.125 5.125 15.8155 5.125 16.6667C5.125 17.5178 5.81552 18.2083 6.66667 18.2083C7.51781 18.2083 8.20833 17.5178 8.20833 16.6667C8.20833 15.8155 7.51781 15.125 6.66667 15.125Z" fill="#0F9141" stroke="#0F9141"/>
<path id="Vector_4" d="M13.3334 18.4583C12.3429 18.4583 11.5417 17.6572 11.5417 16.6667C11.5417 15.6761 12.3429 14.875 13.3334 14.875C14.3239 14.875 15.1251 15.6761 15.1251 16.6667C15.1251 17.6572 14.3239 18.4583 13.3334 18.4583ZM13.3334 15.125C12.4823 15.125 11.7917 15.8155 11.7917 16.6667C11.7917 17.5178 12.4823 18.2083 13.3334 18.2083C14.1846 18.2083 14.8751 17.5178 14.8751 16.6667C14.8751 15.8155 14.1846 15.125 13.3334 15.125Z" fill="#0F9141" stroke="#0F9141"/>
<path id="Vector_5" d="M17.0104 7.42981L17.0103 7.42987L17.0156 7.43927L18.4377 9.93404C18.4449 9.94777 18.4504 9.9617 18.4539 9.97436C18.4577 9.98796 18.4583 9.99667 18.4583 10V11.6667C18.4583 11.6968 18.446 11.7281 18.4204 11.7537C18.3948 11.7794 18.3635 11.7917 18.3333 11.7917H15.8333C15.3095 11.7917 14.875 11.3572 14.875 10.8333V8.33333C14.875 7.80948 15.3095 7.375 15.8333 7.375H16.9083C16.9602 7.375 16.9943 7.40012 17.0104 7.42981ZM17.7083 11.5417H18.2083V11.0417V10.1667V10.0339L18.1425 9.91861L16.9758 7.87693L16.8318 7.625H16.5416H15.8333C15.4405 7.625 15.125 7.94052 15.125 8.33333V10.8333C15.125 11.2261 15.4405 11.5417 15.8333 11.5417H17.7083Z" fill="#0F9141" stroke="#0F9141"/>
<path id="Vector_6" d="M6.66675 7.29163H1.66675C1.32508 7.29163 1.04175 7.00829 1.04175 6.66663C1.04175 6.32496 1.32508 6.04163 1.66675 6.04163H6.66675C7.00841 6.04163 7.29175 6.32496 7.29175 6.66663C7.29175 7.00829 7.00841 7.29163 6.66675 7.29163Z" fill="#0F9141"/>
<path id="Vector_7" d="M5.00008 9.79163H1.66675C1.32508 9.79163 1.04175 9.50829 1.04175 9.16663C1.04175 8.82496 1.32508 8.54163 1.66675 8.54163H5.00008C5.34175 8.54163 5.62508 8.82496 5.62508 9.16663C5.62508 9.50829 5.34175 9.79163 5.00008 9.79163Z" fill="#0F9141"/>
<path id="Vector_8" d="M3.33341 12.2916H1.66675C1.32508 12.2916 1.04175 12.0083 1.04175 11.6666C1.04175 11.325 1.32508 11.0416 1.66675 11.0416H3.33341C3.67508 11.0416 3.95841 11.325 3.95841 11.6666C3.95841 12.0083 3.67508 12.2916 3.33341 12.2916Z" fill="#0F9141"/>
</g>
</g>
</svg>
