<svg width="24" height="24" viewBox="0 0 24 24" fill="none" xmlns="http://www.w3.org/2000/svg">
<path d="M23.5001 14.3162H23.2486V14.0646H23.5001V14.3162Z" fill="#434E5E" stroke="#434E5E"/>
<path d="M6.51257 17.2461C6.51257 17.094 6.63709 16.9695 6.7892 16.9695C6.94131 16.9695 7.06583 17.094 7.06583 17.2461C7.06583 17.3983 6.94131 17.5228 6.7892 17.5228C6.63709 17.5228 6.51257 17.3983 6.51257 17.2461Z" fill="#434E5E" stroke="#434E5E"/>
<path d="M19.7405 17.2461C19.7405 17.094 19.865 16.9695 20.0171 16.9695C20.1692 16.9695 20.2937 17.094 20.2937 17.2461C20.2937 17.3983 20.1692 17.5228 20.0171 17.5228C19.865 17.5228 19.7405 17.3983 19.7405 17.2461Z" fill="#434E5E" stroke="#434E5E"/>
<mask id="path-4-inside-1_101_14532" fill="white">
<path d="M15.6075 14.8663H9.99579C9.78828 14.8663 9.62 15.0345 9.62 15.2421C9.62 15.4496 9.78823 15.6179 9.99579 15.6179H15.6075C15.815 15.6179 15.9833 15.4496 15.9833 15.2421C15.9833 15.0345 15.8151 14.8663 15.6075 14.8663Z"/>
</mask>
<path d="M15.6075 14.8663H9.99579C9.78828 14.8663 9.62 15.0345 9.62 15.2421C9.62 15.4496 9.78823 15.6179 9.99579 15.6179H15.6075C15.815 15.6179 15.9833 15.4496 15.9833 15.2421C15.9833 15.0345 15.8151 14.8663 15.6075 14.8663Z" fill="#434E5E"/>
<path d="M15.6075 13.8663H9.99579V15.8663H15.6075V13.8663ZM9.99579 13.8663C9.23607 13.8663 8.62 14.4821 8.62 15.2421H10.62C10.62 15.5869 10.3405 15.8663 9.99579 15.8663V13.8663ZM8.62 15.2421C8.62 16.0019 9.23595 16.6179 9.99579 16.6179V14.6179C10.3405 14.6179 10.62 14.8973 10.62 15.2421H8.62ZM9.99579 16.6179H15.6075V14.6179H9.99579V16.6179ZM15.6075 16.6179C16.3672 16.6179 16.9833 16.002 16.9833 15.2421H14.9833C14.9833 14.8973 15.2628 14.6179 15.6075 14.6179V16.6179ZM16.9833 15.2421C16.9833 14.4822 16.3674 13.8663 15.6075 13.8663V15.8663C15.2628 15.8663 14.9833 15.5868 14.9833 15.2421H16.9833Z" fill="#434E5E" mask="url(#path-4-inside-1_101_14532)"/>
<mask id="path-6-inside-2_101_14532" fill="white">
<path d="M5.98798 13.2628H1.17792C0.970406 13.2628 0.802124 13.4311 0.802124 13.6386C0.802124 13.8462 0.970359 14.0144 1.17792 14.0144H5.98798C6.19549 14.0144 6.36378 13.8462 6.36378 13.6386C6.36378 13.4311 6.19549 13.2628 5.98798 13.2628Z"/>
</mask>
<path d="M5.98798 13.2628H1.17792C0.970406 13.2628 0.802124 13.4311 0.802124 13.6386C0.802124 13.8462 0.970359 14.0144 1.17792 14.0144H5.98798C6.19549 14.0144 6.36378 13.8462 6.36378 13.6386C6.36378 13.4311 6.19549 13.2628 5.98798 13.2628Z" fill="#434E5E"/>
<path d="M5.98798 12.2628H1.17792V14.2628H5.98798V12.2628ZM1.17792 12.2628C0.418203 12.2628 -0.197876 12.8787 -0.197876 13.6386H1.80212C1.80212 13.9834 1.52261 14.2628 1.17792 14.2628V12.2628ZM-0.197876 13.6386C-0.197876 14.3985 0.418075 15.0144 1.17792 15.0144V13.0144C1.52264 13.0144 1.80212 13.2939 1.80212 13.6386H-0.197876ZM1.17792 15.0144H5.98798V13.0144H1.17792V15.0144ZM5.98798 15.0144C6.7477 15.0144 7.36378 14.3985 7.36378 13.6386H5.36378C5.36378 13.2938 5.64329 13.0144 5.98798 13.0144V15.0144ZM7.36378 13.6386C7.36378 12.8787 6.7477 12.2628 5.98798 12.2628V14.2628C5.64329 14.2628 5.36378 13.9834 5.36378 13.6386H7.36378Z" fill="#434E5E" mask="url(#path-6-inside-2_101_14532)"/>
<path d="M12.8901 8.51563C12.8901 8.51564 12.8901 8.51565 12.8901 8.51566L12.8901 8.51563ZM12.8901 8.51563L12.8902 8.51558M12.8901 8.51563L12.8902 8.51558M12.8901 8.51563C12.8901 8.51561 12.8901 8.51559 12.8902 8.51558M12.8901 8.51563L13.0679 8.6934L12.8902 8.51558M12.8902 8.51558L12.8023 8.42773L12.8902 8.51558ZM9.28276 11.9475L9.28264 11.9474L9.28276 11.9475Z" fill="#434E5E" stroke="#434E5E"/>
</svg>
