<svg width="40" height="40" viewBox="0 0 40 40" fill="none" xmlns="http://www.w3.org/2000/svg">
<path d="M33.7952 14.7336V14.7672L33.8 14.8008C33.8152 14.8952 33.9552 15.8632 33.56 17.516C32.9944 19.8968 31.6856 22.076 29.7576 23.8104L19.92 32.5312L10.24 23.8112C8.31119 22.08 7.00079 19.8984 6.43439 17.52C6.04079 15.8648 6.18159 14.8984 6.19439 14.8064L6.19999 14.7712V14.736C6.59439 10.416 9.62559 7.47198 13.24 7.47198C15.64 7.47198 17.792 8.74158 19.06 10.896L19.9024 12.3272L20.7584 10.904C22.0344 8.78398 24.2928 7.47279 26.7472 7.47279C30.3696 7.46959 33.4 10.4136 33.7952 14.7336Z" fill="#232D38" stroke="#232D38" stroke-width="1.6" stroke-linecap="round" stroke-linejoin="round"/>
</svg>
