<svg width="24" height="22" viewBox="0 0 24 22" fill="none" xmlns="http://www.w3.org/2000/svg">
<g id="Group">
<path id="Vector" d="M23.0363 6.78688V6.81376L23.0401 6.84064C23.0523 6.91616 23.1643 7.69056 22.8481 9.0128C22.3956 10.9174 21.3486 12.6608 19.8062 14.0483L11.9361 21.025L4.19209 14.049C2.64905 12.664 1.60073 10.9187 1.14761 9.016C0.832734 7.69184 0.945374 6.91872 0.955614 6.84512L0.960094 6.81696V6.7888C1.27561 3.3328 3.70057 0.9776 6.59209 0.9776C8.51209 0.9776 10.2337 1.99328 11.2481 3.7168L11.922 4.86176L12.6068 3.7232C13.6276 2.0272 15.4343 0.97824 17.3979 0.97824C20.2958 0.97568 22.7201 3.33088 23.0363 6.78688Z" stroke="#E8F2FF" stroke-opacity="0.37" stroke-width="1.6" stroke-linecap="round" stroke-linejoin="round"/>
</g>
</svg>
