<svg width="32" height="24" viewBox="0 0 32 24" fill="none" xmlns="http://www.w3.org/2000/svg">
<g clip-path="url(#clip0_98_3092)">
<path d="M0 0H32V24H0V0Z" fill="#DE2910"/>
<path d="M3.88314 8.91599L5.99991 2.39999L8.11668 8.91599L2.57275 4.88399H9.42707L3.88314 8.91599Z" fill="#FFDE00"/>
<path d="M13.2109 2.50545L10.9851 3.01658L12.4855 1.29493L12.2825 3.57094L11.1082 1.61105L13.2109 2.50545Z" fill="#FFDE00"/>
<path d="M15.4592 5.35121L13.2094 4.95908L15.2602 3.95413L14.1903 5.97325L13.868 3.7113L15.4592 5.35121Z" fill="#FFDE00"/>
<path d="M15.1385 9.34627L13.2443 8.07064L15.5266 7.98947L13.7262 9.39668L14.3545 7.19995L15.1385 9.34627Z" fill="#FFDE00"/>
<path d="M12.3145 11.961L11.0599 10.0527L13.1964 10.8593L10.9923 11.462L12.4202 9.6784L12.3145 11.961Z" fill="#FFDE00"/>
</g>
<defs>
<clipPath id="clip0_98_3092">
<rect width="32" height="24" fill="white"/>
</clipPath>
</defs>
</svg>
