<svg width="45" height="45" viewBox="0 0 45 45" fill="none" xmlns="http://www.w3.org/2000/svg">
<path d="M22.3335 24.4796C22.0952 24.4796 21.8569 24.4246 21.6369 24.2963L11.9202 18.6863C11.2602 18.3013 11.0402 17.458 11.4252 16.8163C11.8102 16.1563 12.6352 15.9363 13.3135 16.3213L22.3335 21.5463L31.2986 16.358C31.9586 15.973 32.8019 16.2113 33.1869 16.8529C33.5719 17.5129 33.3335 18.3563 32.6919 18.723L23.0486 24.2963C22.8102 24.4063 22.5719 24.4796 22.3335 24.4796Z" fill="#D73227"/>
<path d="M22.3333 34.4528C21.5816 34.4528 20.9583 33.8295 20.9583 33.0778V23.1045C20.9583 22.3528 21.5816 21.7295 22.3333 21.7295C23.085 21.7295 23.7083 22.3528 23.7083 23.1045V33.0778C23.7083 33.8295 23.085 34.4528 22.3333 34.4528Z" fill="#D73227"/>
<path d="M22.3338 34.8755C21.2704 34.8755 20.2255 34.6371 19.3821 34.1788L13.5154 30.9154C11.7554 29.9438 10.3987 27.6155 10.3987 25.5988V19.3838C10.3987 17.3855 11.7738 15.0388 13.5154 14.0671L19.3821 10.8038C21.0688 9.86879 23.5987 9.86879 25.2854 10.8038L31.1521 14.0671C32.9121 15.0388 34.2688 17.3671 34.2688 19.3838V25.5988C34.2688 27.5971 32.8938 29.9438 31.1521 30.9154L25.2854 34.1788C24.4421 34.6371 23.3971 34.8755 22.3338 34.8755ZM22.3338 12.8755C21.7288 12.8755 21.1421 12.9855 20.7204 13.2238L14.8538 16.4871C13.9555 16.9821 13.1487 18.3755 13.1487 19.3838V25.5988C13.1487 26.6255 13.9555 28.0004 14.8538 28.4954L20.7204 31.7588C21.5638 32.2355 23.1038 32.2355 23.9471 31.7588L29.8137 28.4954C30.7121 28.0004 31.5188 26.6071 31.5188 25.5988V19.3838C31.5188 18.3571 30.7121 16.9821 29.8137 16.4871L23.9471 13.2238C23.5254 12.9855 22.9388 12.8755 22.3338 12.8755Z" fill="#D73227"/>
<path d="M27.8337 42.2081C27.3387 42.2081 26.8804 41.9331 26.642 41.5115C26.4037 41.0715 26.4036 40.5581 26.6603 40.1181L28.5853 36.9098C28.9703 36.2681 29.8137 36.0481 30.4737 36.4331C31.1337 36.8181 31.3354 37.6614 30.9504 38.3214L30.4553 39.1465C35.5153 37.9548 39.3104 33.4081 39.3104 27.9814C39.3104 27.2298 39.9337 26.6064 40.6854 26.6064C41.437 26.6064 42.0604 27.2298 42.0604 27.9814C42.042 35.8281 35.662 42.2081 27.8337 42.2081Z" fill="#D73227"/>
<path d="M3.99998 18.3753C3.24831 18.3753 2.62498 17.752 2.62498 17.0003C2.62498 9.17199 9.00498 2.79199 16.8333 2.79199C17.3283 2.79199 17.7866 3.06699 18.025 3.48865C18.2633 3.92865 18.2633 4.44199 18.0067 4.88199L16.0816 8.09032C15.6966 8.73199 14.8533 8.95199 14.1933 8.56699C13.5333 8.18199 13.3316 7.33866 13.7166 6.67866L14.2117 5.85366C9.15166 7.04532 5.35663 11.592 5.35663 17.0187C5.37496 17.752 4.75164 18.3753 3.99998 18.3753Z" fill="#D73227"/>
</svg>
