<svg width="44" height="45" viewBox="0 0 44 45" fill="none" xmlns="http://www.w3.org/2000/svg">
<path d="M4.04457 7.63234C4.04473 7.63205 4.04489 7.63176 4.04505 7.63147L4.04457 7.63234Z" fill="#D73227" stroke="#D73227" stroke-width="4"/>
<mask id="path-2-inside-1_2007_17830" fill="white">
<path d="M34.8333 38.542H33C32.2483 38.542 31.625 37.9187 31.625 37.167C31.625 35.902 30.5983 34.8753 29.3333 34.8753C28.0683 34.8753 27.0417 35.902 27.0417 37.167C27.0417 37.9187 26.4183 38.542 25.6667 38.542H18.3333C17.5817 38.542 16.9583 37.9187 16.9583 37.167C16.9583 35.902 15.9317 34.8753 14.6667 34.8753C13.4017 34.8753 12.375 35.902 12.375 37.167C12.375 37.9187 11.7517 38.542 11 38.542H9.16666C5.37166 38.542 2.29166 35.462 2.29166 31.667C2.29166 30.9153 2.91499 30.292 3.66666 30.292C4.41832 30.292 5.04166 30.9153 5.04166 31.667C5.04166 33.9403 6.89332 35.792 9.16666 35.792H9.80828C10.4133 33.6837 12.3567 32.1253 14.6667 32.1253C16.9767 32.1253 18.92 33.6837 19.525 35.792H24.4933C25.0983 33.6837 27.0417 32.1253 29.3517 32.1253C31.6617 32.1253 33.6049 33.6837 34.2099 35.792H34.8333C37.1067 35.792 38.9583 33.9403 38.9583 31.667V27.542H34.8333C33.0733 27.542 31.625 26.0937 31.625 24.3337V18.8337C31.625 17.0737 33.055 15.6253 34.8333 15.6253L32.8716 12.197C32.4683 11.482 31.6984 11.042 30.8734 11.042H28.875V22.5003C28.875 25.287 26.62 27.542 23.8333 27.542H22C21.2483 27.542 20.625 26.9187 20.625 26.167C20.625 25.4153 21.2483 24.792 22 24.792H23.8333C25.0983 24.792 26.125 23.7653 26.125 22.5003V9.66699C26.125 8.91533 26.7483 8.29199 27.5 8.29199H30.8734C32.6884 8.29199 34.3566 9.26369 35.255 10.8404L38.39 16.322C38.6283 16.7437 38.6283 17.2753 38.39 17.697C38.1517 18.1187 37.6933 18.3753 37.1983 18.3753H34.8333C34.5767 18.3753 34.375 18.577 34.375 18.8337V24.3337C34.375 24.5903 34.5767 24.792 34.8333 24.792H40.3333C41.085 24.792 41.7083 25.4153 41.7083 26.167V31.667C41.7083 35.462 38.6283 38.542 34.8333 38.542Z"/>
</mask>
<path d="M34.8333 38.542H33C32.2483 38.542 31.625 37.9187 31.625 37.167C31.625 35.902 30.5983 34.8753 29.3333 34.8753C28.0683 34.8753 27.0417 35.902 27.0417 37.167C27.0417 37.9187 26.4183 38.542 25.6667 38.542H18.3333C17.5817 38.542 16.9583 37.9187 16.9583 37.167C16.9583 35.902 15.9317 34.8753 14.6667 34.8753C13.4017 34.8753 12.375 35.902 12.375 37.167C12.375 37.9187 11.7517 38.542 11 38.542H9.16666C5.37166 38.542 2.29166 35.462 2.29166 31.667C2.29166 30.9153 2.91499 30.292 3.66666 30.292C4.41832 30.292 5.04166 30.9153 5.04166 31.667C5.04166 33.9403 6.89332 35.792 9.16666 35.792H9.80828C10.4133 33.6837 12.3567 32.1253 14.6667 32.1253C16.9767 32.1253 18.92 33.6837 19.525 35.792H24.4933C25.0983 33.6837 27.0417 32.1253 29.3517 32.1253C31.6617 32.1253 33.6049 33.6837 34.2099 35.792H34.8333C37.1067 35.792 38.9583 33.9403 38.9583 31.667V27.542H34.8333C33.0733 27.542 31.625 26.0937 31.625 24.3337V18.8337C31.625 17.0737 33.055 15.6253 34.8333 15.6253L32.8716 12.197C32.4683 11.482 31.6984 11.042 30.8734 11.042H28.875V22.5003C28.875 25.287 26.62 27.542 23.8333 27.542H22C21.2483 27.542 20.625 26.9187 20.625 26.167C20.625 25.4153 21.2483 24.792 22 24.792H23.8333C25.0983 24.792 26.125 23.7653 26.125 22.5003V9.66699C26.125 8.91533 26.7483 8.29199 27.5 8.29199H30.8734C32.6884 8.29199 34.3566 9.26369 35.255 10.8404L38.39 16.322C38.6283 16.7437 38.6283 17.2753 38.39 17.697C38.1517 18.1187 37.6933 18.3753 37.1983 18.3753H34.8333C34.5767 18.3753 34.375 18.577 34.375 18.8337V24.3337C34.375 24.5903 34.5767 24.792 34.8333 24.792H40.3333C41.085 24.792 41.7083 25.4153 41.7083 26.167V31.667C41.7083 35.462 38.6283 38.542 34.8333 38.542Z" fill="#D73227"/>
<path d="M9.80828 35.792V39.792H12.8219L13.6531 36.8953L9.80828 35.792ZM19.525 35.792L15.6802 36.8953L16.5114 39.792H19.525V35.792ZM24.4933 35.792V39.792H27.5069L28.3381 36.8953L24.4933 35.792ZM34.2099 35.792L30.3651 36.8953L31.1963 39.792H34.2099V35.792ZM38.9583 27.542H42.9583V23.542H38.9583V27.542ZM34.8333 15.6253V19.6253H41.7306L38.3051 13.6388L34.8333 15.6253ZM32.8716 12.197L29.3877 14.1623L29.3937 14.1729L29.3998 14.1836L32.8716 12.197ZM28.875 11.042V7.04199H24.875V11.042H28.875ZM35.255 10.8404L31.7795 12.8206L31.7827 12.8262L35.255 10.8404ZM38.39 16.322L41.8722 14.3538L41.8673 14.345L41.8622 14.3362L38.39 16.322ZM34.8333 34.542H33V42.542H34.8333V34.542ZM33 34.542C34.4575 34.542 35.625 35.7095 35.625 37.167H27.625C27.625 40.1278 30.0392 42.542 33 42.542V34.542ZM35.625 37.167C35.625 33.6929 32.8075 30.8753 29.3333 30.8753V38.8753C28.3892 38.8753 27.625 38.1111 27.625 37.167H35.625ZM29.3333 30.8753C25.8592 30.8753 23.0417 33.6929 23.0417 37.167H31.0417C31.0417 38.1111 30.2775 38.8753 29.3333 38.8753V30.8753ZM23.0417 37.167C23.0417 35.7095 24.2092 34.542 25.6667 34.542V42.542C28.6275 42.542 31.0417 40.1278 31.0417 37.167H23.0417ZM25.6667 34.542H18.3333V42.542H25.6667V34.542ZM18.3333 34.542C19.7908 34.542 20.9583 35.7095 20.9583 37.167H12.9583C12.9583 40.1278 15.3725 42.542 18.3333 42.542V34.542ZM20.9583 37.167C20.9583 33.6929 18.1408 30.8753 14.6667 30.8753V38.8753C13.7225 38.8753 12.9583 38.1111 12.9583 37.167H20.9583ZM14.6667 30.8753C11.1925 30.8753 8.37499 33.6929 8.37499 37.167H16.375C16.375 38.1111 15.6108 38.8753 14.6667 38.8753V30.8753ZM8.37499 37.167C8.37499 35.7095 9.54252 34.542 11 34.542V42.542C13.9608 42.542 16.375 40.1278 16.375 37.167H8.37499ZM11 34.542H9.16666V42.542H11V34.542ZM9.16666 34.542C7.5808 34.542 6.29166 33.2529 6.29166 31.667H-1.70834C-1.70834 37.6711 3.16252 42.542 9.16666 42.542V34.542ZM6.29166 31.667C6.29166 33.1245 5.12413 34.292 3.66666 34.292V26.292C0.70585 26.292 -1.70834 28.7062 -1.70834 31.667H6.29166ZM3.66666 34.292C2.20918 34.292 1.04166 33.1245 1.04166 31.667H9.04166C9.04166 28.7062 6.62746 26.292 3.66666 26.292V34.292ZM1.04166 31.667C1.04166 36.1495 4.68418 39.792 9.16666 39.792V31.792C9.14581 31.792 9.13399 31.7885 9.12427 31.7844C9.11183 31.7791 9.09582 31.7693 9.08008 31.7536C9.06435 31.7378 9.05452 31.7218 9.04925 31.7094C9.04513 31.6997 9.04166 31.6878 9.04166 31.667H1.04166ZM9.16666 39.792H9.80828V31.792H9.16666V39.792ZM13.6531 36.8953C13.7833 36.4415 14.203 36.1253 14.6667 36.1253V28.1253C10.5103 28.1253 7.04323 30.9258 5.96345 34.6887L13.6531 36.8953ZM14.6667 36.1253C15.1303 36.1253 15.55 36.4415 15.6802 36.8953L23.3699 34.6887C22.2901 30.9258 18.823 28.1253 14.6667 28.1253V36.1253ZM19.525 39.792H24.4933V31.792H19.525V39.792ZM28.3381 36.8953C28.4683 36.4415 28.888 36.1253 29.3517 36.1253V28.1253C25.1953 28.1253 21.7282 30.9258 20.6485 34.6887L28.3381 36.8953ZM29.3517 36.1253C29.8152 36.1253 30.2349 36.4414 30.3651 36.8953L38.0548 34.6887C36.975 30.9259 33.5081 28.1253 29.3517 28.1253V36.1253ZM34.2099 39.792H34.8333V31.792H34.2099V39.792ZM34.8333 39.792C39.3158 39.792 42.9583 36.1495 42.9583 31.667H34.9583C34.9583 31.6878 34.9548 31.6997 34.9507 31.7094C34.9455 31.7218 34.9356 31.7378 34.9199 31.7536C34.9042 31.7693 34.8882 31.7791 34.8757 31.7844C34.866 31.7885 34.8542 31.792 34.8333 31.792V39.792ZM42.9583 31.667V27.542H34.9583V31.667H42.9583ZM38.9583 23.542H34.8333V31.542H38.9583V23.542ZM34.8333 23.542C35.2825 23.542 35.625 23.8845 35.625 24.3337H27.625C27.625 28.3028 30.8642 31.542 34.8333 31.542V23.542ZM35.625 24.3337V18.8337H27.625V24.3337H35.625ZM35.625 18.8337C35.625 19.2679 35.279 19.6253 34.8333 19.6253V11.6253C30.831 11.6253 27.625 14.8794 27.625 18.8337H35.625ZM38.3051 13.6388L36.3435 10.2104L29.3998 14.1836L31.3615 17.6119L38.3051 13.6388ZM36.3556 10.2317C35.2254 8.22819 33.1053 7.04199 30.8734 7.04199V15.042C30.2914 15.042 29.7113 14.7358 29.3877 14.1623L36.3556 10.2317ZM30.8734 7.04199H28.875V15.042H30.8734V7.04199ZM24.875 11.042V22.5003H32.875V11.042H24.875ZM24.875 22.5003C24.875 23.0779 24.4108 23.542 23.8333 23.542V31.542C28.8291 31.542 32.875 27.4961 32.875 22.5003H24.875ZM23.8333 23.542H22V31.542H23.8333V23.542ZM22 23.542C23.4575 23.542 24.625 24.7095 24.625 26.167H16.625C16.625 29.1278 19.0392 31.542 22 31.542V23.542ZM24.625 26.167C24.625 27.6245 23.4575 28.792 22 28.792V20.792C19.0392 20.792 16.625 23.2062 16.625 26.167H24.625ZM22 28.792H23.8333V20.792H22V28.792ZM23.8333 28.792C27.3075 28.792 30.125 25.9745 30.125 22.5003H22.125C22.125 21.5562 22.8892 20.792 23.8333 20.792V28.792ZM30.125 22.5003V9.66699H22.125V22.5003H30.125ZM30.125 9.66699C30.125 11.1245 28.9575 12.292 27.5 12.292V4.29199C24.5392 4.29199 22.125 6.70619 22.125 9.66699H30.125ZM27.5 12.292H30.8734V4.29199H27.5V12.292ZM30.8734 12.292C31.248 12.292 31.5911 12.4899 31.7795 12.8206L38.7304 8.86015C37.1221 6.03747 34.1287 4.29199 30.8734 4.29199V12.292ZM31.7827 12.8262L34.9177 18.3078L41.8622 14.3362L38.7272 8.85452L31.7827 12.8262ZM34.9077 18.2902C34.4557 17.4905 34.4557 16.5285 34.9077 15.7288L41.8722 19.6652C42.8009 18.0222 42.8009 15.9968 41.8722 14.3538L34.9077 18.2902ZM34.9077 15.7288C35.4171 14.8277 36.3301 14.3753 37.1983 14.3753V22.3753C39.0564 22.3753 40.8863 21.4097 41.8722 19.6652L34.9077 15.7288ZM37.1983 14.3753H34.8333V22.3753H37.1983V14.3753ZM34.8333 14.3753C32.3675 14.3753 30.375 16.3679 30.375 18.8337H38.375C38.375 20.7861 36.7858 22.3753 34.8333 22.3753V14.3753ZM30.375 18.8337V24.3337H38.375V18.8337H30.375ZM30.375 24.3337C30.375 26.7995 32.3675 28.792 34.8333 28.792V20.792C36.7858 20.792 38.375 22.3812 38.375 24.3337H30.375ZM34.8333 28.792H40.3333V20.792H34.8333V28.792ZM40.3333 28.792C38.8758 28.792 37.7083 27.6245 37.7083 26.167H45.7083C45.7083 23.2062 43.2941 20.792 40.3333 20.792V28.792ZM37.7083 26.167V31.667H45.7083V26.167H37.7083ZM37.7083 31.667C37.7083 33.2529 36.4192 34.542 34.8333 34.542V42.542C40.8375 42.542 45.7083 37.6711 45.7083 31.667H37.7083Z" fill="#D73227" mask="url(#path-2-inside-1_2007_17830)"/>
<mask id="path-4-inside-2_2007_17830" fill="white">
<path d="M14.6667 42.2083C11.88 42.2083 9.625 39.9533 9.625 37.1667C9.625 34.38 11.88 32.125 14.6667 32.125C17.4533 32.125 19.7083 34.38 19.7083 37.1667C19.7083 39.9533 17.4533 42.2083 14.6667 42.2083ZM14.6667 34.875C13.4017 34.875 12.375 35.9017 12.375 37.1667C12.375 38.4317 13.4017 39.4583 14.6667 39.4583C15.9317 39.4583 16.9583 38.4317 16.9583 37.1667C16.9583 35.9017 15.9317 34.875 14.6667 34.875Z"/>
</mask>
<path d="M14.6667 42.2083C11.88 42.2083 9.625 39.9533 9.625 37.1667C9.625 34.38 11.88 32.125 14.6667 32.125C17.4533 32.125 19.7083 34.38 19.7083 37.1667C19.7083 39.9533 17.4533 42.2083 14.6667 42.2083ZM14.6667 34.875C13.4017 34.875 12.375 35.9017 12.375 37.1667C12.375 38.4317 13.4017 39.4583 14.6667 39.4583C15.9317 39.4583 16.9583 38.4317 16.9583 37.1667C16.9583 35.9017 15.9317 34.875 14.6667 34.875Z" fill="#D73227"/>
<path d="M14.6667 38.2083C14.0891 38.2083 13.625 37.7442 13.625 37.1667H5.625C5.625 42.1625 9.67086 46.2083 14.6667 46.2083V38.2083ZM13.625 37.1667C13.625 36.5891 14.0891 36.125 14.6667 36.125V28.125C9.67086 28.125 5.625 32.1709 5.625 37.1667H13.625ZM14.6667 36.125C15.2442 36.125 15.7083 36.5891 15.7083 37.1667H23.7083C23.7083 32.1709 19.6625 28.125 14.6667 28.125V36.125ZM15.7083 37.1667C15.7083 37.7442 15.2442 38.2083 14.6667 38.2083V46.2083C19.6625 46.2083 23.7083 42.1625 23.7083 37.1667H15.7083ZM14.6667 30.875C11.1925 30.875 8.375 33.6925 8.375 37.1667H16.375C16.375 38.1108 15.6108 38.875 14.6667 38.875V30.875ZM8.375 37.1667C8.375 40.6408 11.1925 43.4583 14.6667 43.4583V35.4583C15.6108 35.4583 16.375 36.2225 16.375 37.1667H8.375ZM14.6667 43.4583C18.1408 43.4583 20.9583 40.6408 20.9583 37.1667H12.9583C12.9583 36.2225 13.7225 35.4583 14.6667 35.4583V43.4583ZM20.9583 37.1667C20.9583 33.6925 18.1408 30.875 14.6667 30.875V38.875C13.7225 38.875 12.9583 38.1108 12.9583 37.1667H20.9583Z" fill="#D73227" mask="url(#path-4-inside-2_2007_17830)"/>
<mask id="path-6-inside-3_2007_17830" fill="white">
<path d="M29.3333 42.2083C26.5467 42.2083 24.2917 39.9533 24.2917 37.1667C24.2917 34.38 26.5467 32.125 29.3333 32.125C32.12 32.125 34.375 34.38 34.375 37.1667C34.375 39.9533 32.12 42.2083 29.3333 42.2083ZM29.3333 34.875C28.0683 34.875 27.0417 35.9017 27.0417 37.1667C27.0417 38.4317 28.0683 39.4583 29.3333 39.4583C30.5983 39.4583 31.625 38.4317 31.625 37.1667C31.625 35.9017 30.5983 34.875 29.3333 34.875Z"/>
</mask>
<path d="M29.3333 42.2083C26.5467 42.2083 24.2917 39.9533 24.2917 37.1667C24.2917 34.38 26.5467 32.125 29.3333 32.125C32.12 32.125 34.375 34.38 34.375 37.1667C34.375 39.9533 32.12 42.2083 29.3333 42.2083ZM29.3333 34.875C28.0683 34.875 27.0417 35.9017 27.0417 37.1667C27.0417 38.4317 28.0683 39.4583 29.3333 39.4583C30.5983 39.4583 31.625 38.4317 31.625 37.1667C31.625 35.9017 30.5983 34.875 29.3333 34.875Z" fill="#D73227"/>
<path d="M29.3333 38.2083C28.7558 38.2083 28.2917 37.7442 28.2917 37.1667H20.2917C20.2917 42.1625 24.3375 46.2083 29.3333 46.2083V38.2083ZM28.2917 37.1667C28.2917 36.5891 28.7558 36.125 29.3333 36.125V28.125C24.3375 28.125 20.2917 32.1709 20.2917 37.1667H28.2917ZM29.3333 36.125C29.9109 36.125 30.375 36.5891 30.375 37.1667H38.375C38.375 32.1709 34.3291 28.125 29.3333 28.125V36.125ZM30.375 37.1667C30.375 37.7442 29.9109 38.2083 29.3333 38.2083V46.2083C34.3291 46.2083 38.375 42.1625 38.375 37.1667H30.375ZM29.3333 30.875C25.8592 30.875 23.0417 33.6925 23.0417 37.1667H31.0417C31.0417 38.1108 30.2775 38.875 29.3333 38.875V30.875ZM23.0417 37.1667C23.0417 40.6408 25.8592 43.4583 29.3333 43.4583V35.4583C30.2775 35.4583 31.0417 36.2225 31.0417 37.1667H23.0417ZM29.3333 43.4583C32.8075 43.4583 35.625 40.6408 35.625 37.1667H27.625C27.625 36.2225 28.3892 35.4583 29.3333 35.4583V43.4583ZM35.625 37.1667C35.625 33.6925 32.8075 30.875 29.3333 30.875V38.875C28.3892 38.875 27.625 38.1108 27.625 37.1667H35.625Z" fill="#D73227" mask="url(#path-6-inside-3_2007_17830)"/>
<mask id="path-8-inside-4_2007_17830" fill="white">
<path d="M40.3333 27.5417H34.8333C33.0733 27.5417 31.625 26.0933 31.625 24.3333V18.8333C31.625 17.0733 33.0733 15.625 34.8333 15.625H37.1983C37.6933 15.625 38.1517 15.8817 38.39 16.3217L41.525 21.8217C41.635 22.0233 41.7083 22.2617 41.7083 22.5V26.1667C41.7083 26.9183 41.085 27.5417 40.3333 27.5417ZM34.8333 18.375C34.5767 18.375 34.375 18.5767 34.375 18.8333V24.3333C34.375 24.59 34.5767 24.7917 34.8333 24.7917H38.9583V22.8667L36.3916 18.375H34.8333Z"/>
</mask>
<path d="M40.3333 27.5417H34.8333C33.0733 27.5417 31.625 26.0933 31.625 24.3333V18.8333C31.625 17.0733 33.0733 15.625 34.8333 15.625H37.1983C37.6933 15.625 38.1517 15.8817 38.39 16.3217L41.525 21.8217C41.635 22.0233 41.7083 22.2617 41.7083 22.5V26.1667C41.7083 26.9183 41.085 27.5417 40.3333 27.5417ZM34.8333 18.375C34.5767 18.375 34.375 18.5767 34.375 18.8333V24.3333C34.375 24.59 34.5767 24.7917 34.8333 24.7917H38.9583V22.8667L36.3916 18.375H34.8333Z" fill="#D73227"/>
<path d="M38.39 16.3217L34.8728 18.2268L34.8935 18.2649L34.9149 18.3025L38.39 16.3217ZM41.525 21.8217L45.0366 19.9063L45.0187 19.8734L45.0001 19.8408L41.525 21.8217ZM38.9583 24.7917V28.7917H42.9583V24.7917H38.9583ZM38.9583 22.8667H42.9583V21.8044L42.4313 20.8821L38.9583 22.8667ZM36.3916 18.375L39.8646 16.3904L38.7129 14.375H36.3916V18.375ZM40.3333 23.5417H34.8333V31.5417H40.3333V23.5417ZM34.8333 23.5417C35.2825 23.5417 35.625 23.8842 35.625 24.3333H27.625C27.625 28.3025 30.8642 31.5417 34.8333 31.5417V23.5417ZM35.625 24.3333V18.8333H27.625V24.3333H35.625ZM35.625 18.8333C35.625 19.2825 35.2825 19.625 34.8333 19.625V11.625C30.8642 11.625 27.625 14.8642 27.625 18.8333H35.625ZM34.8333 19.625H37.1983V11.625H34.8333V19.625ZM37.1983 19.625C36.3087 19.625 35.3725 19.1493 34.8728 18.2268L41.9072 14.4165C40.9308 12.6141 39.0779 11.625 37.1983 11.625V19.625ZM34.9149 18.3025L38.0499 23.8025L45.0001 19.8408L41.8651 14.3408L34.9149 18.3025ZM38.0135 23.7371C37.867 23.4686 37.7083 23.0531 37.7083 22.5H45.7083C45.7083 21.4703 45.403 20.578 45.0366 19.9063L38.0135 23.7371ZM37.7083 22.5V26.1667H45.7083V22.5H37.7083ZM37.7083 26.1667C37.7083 24.7092 38.8759 23.5417 40.3333 23.5417V31.5417C43.2941 31.5417 45.7083 29.1275 45.7083 26.1667H37.7083ZM34.8333 14.375C32.3675 14.375 30.375 16.3675 30.375 18.8333H38.375C38.375 20.7858 36.7858 22.375 34.8333 22.375V14.375ZM30.375 18.8333V24.3333H38.375V18.8333H30.375ZM30.375 24.3333C30.375 26.7991 32.3675 28.7917 34.8333 28.7917V20.7917C36.7858 20.7917 38.375 22.3809 38.375 24.3333H30.375ZM34.8333 28.7917H38.9583V20.7917H34.8333V28.7917ZM42.9583 24.7917V22.8667H34.9583V24.7917H42.9583ZM42.4313 20.8821L39.8646 16.3904L32.9187 20.3596L35.4854 24.8513L42.4313 20.8821ZM36.3916 14.375H34.8333V22.375H36.3916V14.375Z" fill="#D73227" mask="url(#path-8-inside-4_2007_17830)"/>
<mask id="path-10-inside-5_2007_17830" fill="white">
<path d="M14.6667 16.542H3.66666C2.91499 16.542 2.29166 15.9187 2.29166 15.167C2.29166 14.4153 2.91499 13.792 3.66666 13.792H14.6667C15.4183 13.792 16.0417 14.4153 16.0417 15.167C16.0417 15.9187 15.4183 16.542 14.6667 16.542Z"/>
</mask>
<path d="M14.6667 16.542H3.66666C2.91499 16.542 2.29166 15.9187 2.29166 15.167C2.29166 14.4153 2.91499 13.792 3.66666 13.792H14.6667C15.4183 13.792 16.0417 14.4153 16.0417 15.167C16.0417 15.9187 15.4183 16.542 14.6667 16.542Z" fill="#D73227"/>
<path d="M14.6667 12.542H3.66666V20.542H14.6667V12.542ZM3.66666 12.542C5.12413 12.542 6.29166 13.7095 6.29166 15.167H-1.70834C-1.70834 18.1278 0.705852 20.542 3.66666 20.542V12.542ZM6.29166 15.167C6.29166 16.6245 5.12413 17.792 3.66666 17.792V9.79199C0.705852 9.79199 -1.70834 12.2062 -1.70834 15.167H6.29166ZM3.66666 17.792H14.6667V9.79199H3.66666V17.792ZM14.6667 17.792C13.2092 17.792 12.0417 16.6245 12.0417 15.167H20.0417C20.0417 12.2062 17.6275 9.79199 14.6667 9.79199V17.792ZM12.0417 15.167C12.0417 13.7095 13.2092 12.542 14.6667 12.542V20.542C17.6275 20.542 20.0417 18.1278 20.0417 15.167H12.0417Z" fill="#D73227" mask="url(#path-10-inside-5_2007_17830)"/>
<path d="M11 22.042H3.66666C2.91499 22.042 2.29166 21.4187 2.29166 20.667C2.29166 19.9153 2.91499 19.292 3.66666 19.292H11C11.7517 19.292 12.375 19.9153 12.375 20.667C12.375 21.4187 11.7517 22.042 11 22.042Z" fill="#D73227"/>
<path d="M7.33332 27.542H3.66666C2.91499 27.542 2.29166 26.9187 2.29166 26.167C2.29166 25.4153 2.91499 24.792 3.66666 24.792H7.33332C8.08499 24.792 8.70832 25.4153 8.70832 26.167C8.70832 26.9187 8.08499 27.542 7.33332 27.542Z" fill="#D73227"/>
</svg>
