<svg width="44" height="45" viewBox="0 0 44 45" fill="none" xmlns="http://www.w3.org/2000/svg">
<path d="M27.5 42.2087H16.5C6.54502 42.2087 2.29169 37.9553 2.29169 28.0003V17.0003C2.29169 7.04533 6.54502 2.79199 16.5 2.79199H27.5C37.455 2.79199 41.7084 7.04533 41.7084 17.0003V28.0003C41.7084 37.9553 37.455 42.2087 27.5 42.2087ZM16.5 5.54199C8.04835 5.54199 5.04169 8.54866 5.04169 17.0003V28.0003C5.04169 36.452 8.04835 39.4587 16.5 39.4587H27.5C35.9517 39.4587 38.9584 36.452 38.9584 28.0003V17.0003C38.9584 8.54866 35.9517 5.54199 27.5 5.54199H16.5Z" fill="#D73227"/>
<path d="M15.7112 29.8699C15.3629 29.8699 15.0146 29.7416 14.7396 29.4666C14.2079 28.9349 14.2079 28.0549 14.7396 27.5233L26.7479 15.515C27.2795 14.9833 28.1595 14.9833 28.6912 15.515C29.2229 16.0466 29.2229 16.9266 28.6912 17.4583L16.6829 29.4666C16.4079 29.7416 16.0596 29.8699 15.7112 29.8699Z" fill="#D73227"/>
<path d="M16.4633 20.8684C14.465 20.8684 12.8333 19.2368 12.8333 17.2384C12.8333 15.2401 14.465 13.6084 16.4633 13.6084C18.4617 13.6084 20.0933 15.2401 20.0933 17.2384C20.0933 19.2368 18.4617 20.8684 16.4633 20.8684ZM16.4633 16.3767C15.9867 16.3767 15.5833 16.7618 15.5833 17.2568C15.5833 17.7518 15.9683 18.1367 16.4633 18.1367C16.9583 18.1367 17.3433 17.7518 17.3433 17.2568C17.3433 16.7618 16.94 16.3767 16.4633 16.3767Z" fill="#D73227"/>
<path d="M28.4534 31.3733C26.4551 31.3733 24.8234 29.7416 24.8234 27.7432C24.8234 25.7449 26.4551 24.1133 28.4534 24.1133C30.4517 24.1133 32.0834 25.7449 32.0834 27.7432C32.0834 29.7416 30.4517 31.3733 28.4534 31.3733ZM28.4534 26.8816C27.9767 26.8816 27.5734 27.2666 27.5734 27.7616C27.5734 28.2566 27.9584 28.6416 28.4534 28.6416C28.9484 28.6416 29.3334 28.2566 29.3334 27.7616C29.3334 27.2666 28.9484 26.8816 28.4534 26.8816Z" fill="#D73227"/>
</svg>
