<svg width="45" height="45" viewBox="0 0 45 45" fill="none" xmlns="http://www.w3.org/2000/svg">
<path d="M22.6667 42.2263C20.6684 42.2263 18.6884 41.6396 17.13 40.4846L9.24669 34.5996C7.15669 33.0413 5.52502 29.778 5.52502 27.193V13.553C5.52502 10.7296 7.59669 7.72298 10.255 6.73298L19.4034 3.30465C21.2184 2.62632 24.0784 2.62632 25.8934 3.30465L35.0417 6.73298C37.7 7.72298 39.7717 10.7296 39.7717 13.553V27.1747C39.7717 29.778 38.14 33.023 36.05 34.5813L28.1667 40.4663C26.645 41.6396 24.665 42.2263 22.6667 42.2263ZM20.375 5.88965L11.2267 9.31798C9.66836 9.90465 8.29336 11.8846 8.29336 13.5713V27.193C8.29336 28.9347 9.52169 31.373 10.8967 32.3996L18.78 38.2846C20.8884 39.8613 24.445 39.8613 26.5717 38.2846L34.455 32.3996C35.8484 31.3546 37.0584 28.9347 37.0584 27.193V13.553C37.0584 11.8846 35.6834 9.90465 34.125 9.29965L24.9767 5.87132C23.73 5.43132 21.6034 5.43132 20.375 5.88965Z" fill="#D73227"/>
<path d="M20.21 26.5887C19.8617 26.5887 19.5134 26.4604 19.2384 26.1854L16.2867 23.2337C15.755 22.702 15.755 21.822 16.2867 21.2904C16.8184 20.7587 17.6984 20.7587 18.23 21.2904L20.21 23.2704L27.1217 16.3587C27.6534 15.827 28.5334 15.827 29.065 16.3587C29.5967 16.8904 29.5967 17.7704 29.065 18.302L21.1817 26.1854C20.9067 26.4604 20.5584 26.5887 20.21 26.5887Z" fill="#D73227"/>
</svg>
