<svg width="23" height="24" viewBox="0 0 23 24" fill="none" xmlns="http://www.w3.org/2000/svg">
<path d="M7.38477 1.84619V23.077" stroke="#D73227" stroke-width="1.5" stroke-linecap="round"/>
<path d="M14.769 1.84619V23.077" stroke="#D73227" stroke-width="1.5" stroke-linecap="round"/>
<path d="M0.922852 9.23068L4.15362 7.38452L7.38439 9.23068" stroke="#D73227" stroke-width="1.5"/>
<path d="M14.769 9.23068L17.9998 7.38452L21.2306 9.23068" stroke="#D73227" stroke-width="1.5"/>
<path d="M0.922852 16.6154L4.15362 14.7693L7.38439 16.6154" stroke="#D73227" stroke-width="1.5"/>
<path d="M14.769 16.6154L17.9998 14.7693L21.2306 16.6154" stroke="#D73227" stroke-width="1.5"/>
<path d="M18.4613 0.923096H3.69208C2.16268 0.923096 0.922852 2.16292 0.922852 3.69233V20.3077C0.922852 21.8371 2.16268 23.0769 3.69208 23.0769H18.4613C19.9907 23.0769 21.2305 21.8371 21.2305 20.3077V3.69233C21.2305 2.16292 19.9907 0.923096 18.4613 0.923096Z" stroke="#D73227" stroke-width="1.5"/>
<path d="M7.38477 5.53854L11.0771 3.69238L14.7694 5.53854" stroke="#D73227" stroke-width="1.5"/>
<path d="M7.38477 12.9231L11.0771 11.0769L14.7694 12.9231" stroke="#D73227" stroke-width="1.5"/>
<path d="M7.38477 20.3076L11.0771 18.4614L14.7694 20.3076" stroke="#D73227" stroke-width="1.5"/>
</svg>
