<svg width="23" height="24" viewBox="0 0 23 24" fill="none" xmlns="http://www.w3.org/2000/svg">
<path d="M0.922852 7.38458L2.76901 6.27689C3.04593 6.09227 3.41516 6.09227 3.69208 6.27689L5.0767 7.10766C5.35362 7.29227 5.72285 7.29227 5.99978 7.10766L7.38439 6.27689C7.66132 6.09227 8.03055 6.09227 8.30747 6.27689L10.1536 7.38458" stroke="#D73227" stroke-width="1.5" stroke-linecap="round"/>
<path d="M11.6305 21.3231L11.0767 20.9539L10.5229 21.3231L8.30747 22.8923L6.09208 21.4154L5.53824 21.0462L5.0767 21.3231L2.39977 22.8923L0.922852 21.6923V0.923096H8.30747C15.4152 0.923096 21.2305 6.73848 21.2305 13.8462V21.6L19.3844 22.8923L17.169 21.3231L16.6152 20.9539L16.0613 21.3231L13.8459 22.8923L11.6305 21.3231Z" stroke="#D73227" stroke-width="1.5"/>
<path d="M0.922852 11.0769H20.4921" stroke="#D73227" stroke-width="1.5" stroke-linecap="round"/>
<path d="M10.1538 21.2309V7.38471L12.923 4.61548" stroke="#D73227" stroke-width="1.5" stroke-linecap="round"/>
<path d="M12 1.84619C12.8308 3.23081 14.9538 6.64619 12.9231 8.76927C14.5846 8.03081 16.8923 6.18465 19.9385 8.30773" stroke="#D73227" stroke-width="1.5" stroke-miterlimit="2.3662"/>
<path d="M0.922852 16.6154L2.76901 15.5077C3.04593 15.323 3.41516 15.323 3.69208 15.5077L5.0767 16.3384C5.35362 16.523 5.72285 16.523 5.99978 16.3384L7.38439 15.5077C7.66131 15.323 8.03055 15.323 8.30747 15.5077L9.69208 16.3384C9.96901 16.523 10.3382 16.523 10.6152 16.3384L11.9998 15.5077C12.2767 15.323 12.6459 15.323 12.9229 15.5077L14.3075 16.3384C14.5844 16.523 14.9536 16.523 15.2305 16.3384L16.6152 15.5077C16.8921 15.323 17.2613 15.323 17.5382 15.5077L18.8305 16.2461C19.1075 16.4307 19.569 16.4307 19.8459 16.1538L21.2305 15.1384" stroke="#D73227" stroke-width="1.5" stroke-linecap="round"/>
</svg>
