<svg width="48" height="53" viewBox="0 0 48 53" fill="none" xmlns="http://www.w3.org/2000/svg">
<path fill-rule="evenodd" clip-rule="evenodd" d="M41.8356 26.7348C41.6861 26.7348 41.5428 26.6754 41.4372 26.5698C41.3315 26.4641 41.2721 26.3208 41.2721 26.1714V19.4299C41.2721 15.8589 39.8693 12.4892 37.3223 9.94281C34.7753 7.39519 31.4057 5.9924 27.8349 5.9924H19.9277C16.3566 5.9924 12.9876 7.39519 10.4402 9.94281C7.89321 12.4892 6.49042 15.8585 6.49042 19.4299V26.1717C6.48684 26.3188 6.42591 26.4587 6.32059 26.5614C6.21527 26.6642 6.07395 26.7218 5.9268 26.7218C5.77964 26.7218 5.63833 26.6642 5.53308 26.5614C5.42776 26.4587 5.36675 26.3188 5.36318 26.1717V19.4299C5.36318 15.558 6.88352 11.9057 9.64315 9.14541C12.4035 6.38544 16.0561 4.86516 19.928 4.86516H27.8356C31.7072 4.86516 35.3594 6.38544 38.1194 9.14541C40.8794 11.9057 42.3994 15.558 42.3994 19.4299V26.1717C42.3994 26.4828 42.1468 26.7348 41.8356 26.7348ZM45.9348 27.62C45.7854 27.62 45.6422 27.5606 45.5365 27.455C45.4309 27.3493 45.3714 27.2061 45.3714 27.0566V19.4299C45.3714 14.6508 43.6108 10.6647 39.8307 6.88434C36.4407 3.49496 31.7078 1.62723 26.505 1.62723H21.2576C16.0541 1.62723 11.3215 3.49496 7.93148 6.88434C4.15144 10.6651 2.3912 14.6504 2.3912 19.4299V27.057C2.38763 27.2041 2.32669 27.3439 2.22137 27.4467C2.11605 27.5495 1.97474 27.6071 1.8276 27.6071C1.68045 27.6071 1.53912 27.5495 1.43381 27.4467C1.32851 27.3439 1.26756 27.2041 1.26398 27.057V19.4299C1.26398 14.3323 3.12939 10.0929 7.13476 6.08721C10.7374 2.48421 15.7532 0.5 21.2572 0.5H26.5046C32.0087 0.5 37.0245 2.48421 40.6275 6.08721C44.6326 10.0929 46.4982 14.3323 46.4982 19.4299V27.057C46.4982 27.3681 46.246 27.62 45.9348 27.62Z" fill="white"/>
<path d="M5.88992 26.3105H5.89294H6.43499C6.68911 26.311 6.93272 26.4082 7.11237 26.5812C7.29202 26.7541 7.39308 26.9886 7.39336 27.2331V40.4999V40.5021C7.39308 40.7466 7.29202 40.981 7.11237 41.154C6.93272 41.3269 6.68911 41.4242 6.43499 41.4246H3.95868C3.40221 41.4253 2.85405 41.2951 2.36181 41.0452C2.33611 41.0291 2.30898 41.0148 2.28067 41.0023C1.74802 40.715 1.30448 40.2964 0.995631 39.7895C0.686774 39.2826 0.523755 38.7058 0.523315 38.1182V29.6166C0.52326 29.151 0.625617 28.6907 0.823646 28.2658C1.02167 27.8411 1.31089 27.4613 1.6723 27.1518C1.70472 27.1295 1.73488 27.1042 1.7624 27.0765C2.37836 26.581 3.15585 26.3098 3.95868 26.3105H5.88992Z" fill="#D73227"/>
<path fill-rule="evenodd" clip-rule="evenodd" d="M43.5636 41.9018H41.3498C40.8238 41.9011 40.3196 41.6918 39.9477 41.3198C39.5759 40.9479 39.3667 40.4436 39.3662 39.9176C39.3713 39.7715 39.4328 39.6331 39.5379 39.5315C39.643 39.4299 39.7835 39.3732 39.9297 39.3732C40.0759 39.3732 40.2163 39.4299 40.3214 39.5315C40.4265 39.6331 40.4881 39.7715 40.4931 39.9176C40.4935 40.1447 40.5838 40.3624 40.7444 40.523C40.9049 40.6837 41.1226 40.7741 41.3498 40.7746H43.5636C45.2563 40.7746 46.6348 39.3968 46.6348 37.7034V29.8058C46.6348 28.1128 45.2563 26.7347 43.5636 26.7347H41.3498C41.1226 26.7351 40.905 26.8256 40.7444 26.9862C40.584 27.1469 40.4936 27.3645 40.4931 27.5916C40.4931 27.7411 40.4337 27.8844 40.3281 27.9902C40.2223 28.0959 40.0789 28.1552 39.9295 28.1552C39.78 28.1552 39.6367 28.0959 39.531 27.9902C39.4253 27.8844 39.3659 27.7411 39.3659 27.5916C39.3664 27.0656 39.5756 26.5613 39.9475 26.1892C40.3195 25.8173 40.8237 25.608 41.3498 25.6074H43.5636C45.8786 25.6074 47.7617 27.4908 47.7617 29.8058V37.7034C47.7617 40.0188 45.8786 41.9018 43.5636 41.9018Z" fill="white"/>
<path fill-rule="evenodd" clip-rule="evenodd" d="M34.7924 25.2021C34.5056 25.2025 34.2308 25.3165 34.0282 25.5193C33.8255 25.7222 33.7116 25.997 33.7114 26.2838V41.2253C33.7116 41.512 33.8255 41.7869 34.0282 41.9897C34.2308 42.1925 34.5056 42.3066 34.7924 42.3069H38.2866C38.5732 42.3066 38.848 42.1925 39.0506 41.9897C39.2532 41.7869 39.3671 41.512 39.3671 41.2253V26.2838C39.3671 25.9971 39.2532 25.7222 39.0506 25.5193C38.848 25.3165 38.5732 25.2025 38.2866 25.2021H34.7924ZM38.2866 43.4338H34.7924C33.5749 43.4338 32.5845 42.443 32.5845 41.2253V26.2838C32.5845 25.066 33.5749 24.0752 34.7924 24.0752H38.2866C39.5039 24.0752 40.4944 25.0663 40.4944 26.2838V41.2253C40.4944 42.443 39.5037 43.4338 38.2866 43.4338ZM6.41128 41.9016H4.19775C1.88304 41.9016 0 40.0185 0 37.7032V29.8056C0 27.4902 1.88304 25.6071 4.19775 25.6071H6.41128C6.93725 25.6078 7.44144 25.8172 7.81331 26.1891C8.18519 26.5611 8.39431 27.0654 8.39479 27.5914C8.39479 27.7408 8.33544 27.8841 8.22978 27.9898C8.12411 28.0955 7.98081 28.1548 7.83138 28.1548C7.68196 28.1548 7.53865 28.0955 7.43292 27.9898C7.32726 27.8841 7.2679 27.7408 7.2679 27.5914C7.26763 27.3642 7.17735 27.1464 7.01673 26.9858C6.85618 26.8251 6.6384 26.7347 6.41128 26.7344H4.19775C2.50476 26.7344 1.1269 28.1125 1.1269 29.8056V37.7032C1.1269 39.3961 2.50476 40.7743 4.19775 40.7743H6.41128C6.6384 40.7739 6.85604 40.6835 7.01666 40.5228C7.17722 40.3622 7.26756 40.1444 7.2679 39.9173C7.2679 39.7679 7.32733 39.6245 7.43299 39.5188C7.53872 39.4131 7.68203 39.3538 7.83152 39.3538C7.98101 39.3538 8.12439 39.4131 8.23005 39.5188C8.33578 39.6245 8.39514 39.7679 8.39514 39.9173C8.39459 40.4433 8.18546 40.9476 7.81366 41.3196C7.44178 41.6916 6.93725 41.9008 6.41128 41.9016Z" fill="white"/>
<path fill-rule="evenodd" clip-rule="evenodd" d="M9.47511 25.2021C9.18842 25.2026 8.91369 25.3167 8.71109 25.5195C8.50849 25.7222 8.39465 25.9971 8.39445 26.2838V41.2253C8.39465 41.5119 8.50849 41.7868 8.71109 41.9896C8.91369 42.1923 9.18842 42.3065 9.47511 42.3069H12.9696C13.2562 42.3066 13.531 42.1925 13.7337 41.9897C13.9363 41.7869 14.0501 41.512 14.0502 41.2253V26.2838C14.0501 25.997 13.9361 25.7222 13.7334 25.5193C13.5308 25.3165 13.256 25.2025 12.9693 25.2021H9.47511ZM12.9696 43.4338H9.47511C8.88964 43.4331 8.32843 43.2001 7.91451 42.786C7.50066 42.372 7.26783 41.8107 7.26721 41.2253V26.2838C7.26783 25.6983 7.50066 25.137 7.91451 24.723C8.32843 24.309 8.88964 24.076 9.47511 24.0752H12.9696C14.1867 24.0752 15.1771 25.0663 15.1771 26.2838V41.2253C15.1771 42.443 14.187 43.4338 12.9696 43.4338Z" fill="white"/>
<path fill-rule="evenodd" clip-rule="evenodd" d="M18.5364 48.3825H18.5244C13.4234 48.2767 9.81809 47.5139 7.50241 46.0508C5.76841 44.9555 4.79328 43.4386 4.52108 41.4134C4.50851 41.3389 4.51112 41.2626 4.52871 41.189C4.54623 41.1155 4.57845 41.0463 4.62331 40.9854C4.66817 40.9246 4.72478 40.8734 4.78984 40.8349C4.8549 40.7963 4.92703 40.7713 5.00199 40.7612C5.07687 40.7512 5.15306 40.7563 5.22595 40.7763C5.29891 40.7962 5.36706 40.8307 5.42635 40.8775C5.48571 40.9243 5.53503 40.9827 5.57138 41.049C5.60772 41.1152 5.63039 41.1881 5.63795 41.2634C5.86294 42.9374 6.66969 44.1911 8.10443 45.0973C10.2118 46.4303 13.7256 47.1557 18.5477 47.2553C18.695 47.26 18.8345 47.3222 18.9366 47.4286C19.0385 47.535 19.0948 47.677 19.0933 47.8244C19.0918 47.9718 19.0327 48.1127 18.9287 48.217C18.8245 48.3213 18.6837 48.3807 18.5364 48.3825ZM18.5204 50.9525H18.5084C12.9102 50.835 8.86357 49.9417 6.13754 48.2181C3.47835 46.5394 2.09355 44.1538 1.90284 40.9285C1.89968 40.7826 1.95327 40.6411 2.05227 40.5339C2.15126 40.4267 2.28798 40.362 2.43369 40.3535C2.5794 40.345 2.72271 40.3933 2.83353 40.4884C2.94434 40.5834 3.01393 40.7177 3.02774 40.863C3.19785 43.7381 4.37729 45.7739 6.73956 47.2663C9.252 48.8534 13.2194 49.7151 18.5317 49.8256C18.6811 49.8271 18.8239 49.8879 18.9285 49.9946C19.0331 50.1013 19.091 50.2453 19.0895 50.3947C19.088 50.5441 19.0272 50.6868 18.9205 50.7914C18.8137 50.8961 18.6699 50.954 18.5204 50.9525Z" fill="white"/>
<path fill-rule="evenodd" clip-rule="evenodd" d="M20.6017 47.2377C20.1037 47.2383 19.6263 47.4364 19.2742 47.7885C18.922 48.1407 18.7239 48.618 18.7233 49.1161C18.7237 49.6141 18.9218 50.0916 19.274 50.4438C19.6261 50.7959 20.1037 50.994 20.6017 50.9945H24.8041C25.3021 50.994 25.7796 50.7959 26.1318 50.4438C26.484 50.0916 26.682 49.6141 26.6825 49.1161C26.6819 48.618 26.4837 48.1407 26.1316 47.7885C25.7795 47.4364 25.3021 47.2383 24.8041 47.2377H20.6017ZM24.8041 52.1217H20.6017C18.9443 52.1217 17.5964 50.7738 17.5964 49.1164C17.5964 47.4597 18.9443 46.1108 20.6017 46.1108H24.8041C26.4615 46.1108 27.8094 47.4596 27.8094 49.1161C27.8094 50.7738 26.4615 52.122 24.8041 52.1217ZM22.6042 20.0873H18.8201C18.7056 20.0871 18.5938 20.0521 18.4997 19.9868C18.4056 19.9215 18.3336 19.8291 18.2933 19.7219C18.253 19.6147 18.2463 19.4977 18.2742 19.3866C18.302 19.2754 18.363 19.1755 18.4491 19.0999L21.662 16.2882C22.0208 15.9548 21.9639 15.5448 21.8527 15.2599C21.6511 14.7407 21.1525 14.351 20.6935 14.351C20.3414 14.3512 20.0037 14.4913 19.7546 14.7402C19.5056 14.9891 19.3654 15.3267 19.365 15.6789V16.2281C19.36 16.3741 19.2984 16.5126 19.1932 16.6141C19.0881 16.7157 18.9477 16.7724 18.8015 16.7724C18.6553 16.7724 18.5149 16.7157 18.4098 16.6141C18.3047 16.5126 18.2431 16.3741 18.2381 16.2281V15.6789C18.2381 14.3251 19.3396 13.2237 20.6935 13.2237C21.6211 13.2237 22.5297 13.892 22.9031 14.8499C23.2316 15.6929 23.0508 16.5415 22.4202 17.1217L22.4102 17.1309L20.3194 18.9601H22.6042C22.7513 18.9636 22.8912 19.0246 22.994 19.1299C23.0967 19.2352 23.1543 19.3765 23.1543 19.5237C23.1543 19.6709 23.0967 19.8122 22.994 19.9175C22.8912 20.0228 22.7513 20.0837 22.6042 20.0873ZM25.5572 17.2874H26.9611V15.4509L25.5572 17.2874ZM27.5245 20.0873C27.375 20.0872 27.2318 20.0278 27.1261 19.9222C27.0205 19.8166 26.9611 19.6733 26.9611 19.5239V18.4143H24.4167C24.3116 18.4142 24.2087 18.3848 24.1195 18.3294C24.0302 18.274 23.9582 18.1949 23.9115 18.1008C23.8649 18.0064 23.8457 17.9009 23.8559 17.7962C23.866 17.6915 23.9053 17.5917 23.9691 17.508L27.0765 13.4444C27.2229 13.2534 27.4759 13.1758 27.7049 13.2534C27.9335 13.3306 28.0876 13.5456 28.0876 13.7876V17.2874H28.9586C29.108 17.2874 29.2513 17.3467 29.357 17.4524C29.4626 17.5581 29.522 17.7014 29.522 17.8508C29.522 18.0003 29.4626 18.1436 29.357 18.2492C29.2513 18.3549 29.108 18.4143 28.9586 18.4143H28.0876V19.5239C28.0876 19.8347 27.8357 20.0873 27.5245 20.0873Z" fill="white"/>
<path fill-rule="evenodd" clip-rule="evenodd" d="M23.8804 9.16435C19.7203 9.16435 16.3349 12.5491 16.3349 16.7085C16.3349 18.6654 17.0811 20.5209 18.435 21.932C18.5524 22.0538 18.6087 22.2232 18.5881 22.3909L18.0862 26.4705L22.478 24.2341C22.5812 24.1825 22.698 24.1625 22.8128 24.1791C23.1664 24.2292 23.5233 24.2542 23.8804 24.254C28.0406 24.254 31.4252 20.8693 31.4252 16.7085C31.4252 12.5491 28.0406 9.16435 23.8804 9.16435ZM17.3973 28.0168C17.3175 28.0166 17.2387 27.9995 17.1659 27.9666C17.0932 27.9338 17.0283 27.8859 16.9755 27.8261C16.9227 27.7663 16.8831 27.696 16.8594 27.6198C16.8357 27.5436 16.8285 27.4633 16.8381 27.3841L17.4372 22.513C15.9984 20.9227 15.2037 18.8534 15.208 16.7088C15.208 11.9267 19.0986 8.03711 23.8804 8.03711C28.6622 8.03711 32.5525 11.9267 32.5525 16.7085C32.5525 21.4904 28.6619 25.3812 23.8804 25.3812C23.5329 25.3812 23.1815 25.3599 22.8337 25.318L17.6529 27.9555C17.5737 27.9957 17.4861 28.0169 17.3973 28.0168ZM17.3952 37.4137C17.2458 37.4137 17.1024 37.3543 16.9967 37.2487C16.891 37.143 16.8316 36.9997 16.8315 36.8502V30.6593C16.8315 30.5098 16.8908 30.3664 16.9966 30.2607C17.1023 30.155 17.2456 30.0956 17.3951 30.0956C17.5446 30.0956 17.688 30.155 17.7936 30.2607C17.8994 30.3664 17.9587 30.5098 17.9587 30.6593V36.8502C17.9587 37.1614 17.7065 37.4137 17.3952 37.4137ZM20.6378 38.8378C20.4884 38.8378 20.3451 38.7784 20.2394 38.6728C20.1338 38.567 20.0744 38.4237 20.0744 38.2743V29.2352C20.0744 29.0858 20.1338 28.9424 20.2394 28.8368C20.3451 28.7311 20.4884 28.6717 20.6378 28.6717C20.7873 28.6717 20.9306 28.7311 21.0363 28.8368C21.142 28.9424 21.2013 29.0858 21.2013 29.2352V38.2743C21.2013 38.5855 20.949 38.8378 20.6378 38.8378ZM23.8804 37.4137C23.7309 37.4137 23.5876 37.3543 23.4819 37.2487C23.3762 37.143 23.3167 36.9997 23.3167 36.8502V30.6593C23.3167 30.5098 23.376 30.3664 23.4817 30.2607C23.5874 30.155 23.7308 30.0956 23.8803 30.0956C24.0297 30.0956 24.1731 30.155 24.2788 30.2607C24.3845 30.3664 24.4439 30.5098 24.4439 30.6593V36.8502C24.4439 37.1614 24.1916 37.4137 23.8804 37.4137ZM27.1227 38.8378C26.9732 38.8378 26.8299 38.7784 26.7243 38.6728C26.6185 38.567 26.5592 38.4237 26.5592 38.2743V29.2352C26.5592 29.0857 26.6186 28.9423 26.7243 28.8366C26.83 28.7309 26.9733 28.6716 27.1228 28.6716C27.2723 28.6716 27.4157 28.7309 27.5213 28.8366C27.6271 28.9423 27.6864 29.0857 27.6864 29.2352V38.2743C27.6864 38.5855 27.4338 38.8378 27.1227 38.8378ZM30.3655 37.4137C30.2161 37.4137 30.0727 37.3543 29.967 37.2487C29.8613 37.143 29.8019 36.9997 29.8018 36.8502V30.6593C29.8018 30.5098 29.8611 30.3664 29.9669 30.2607C30.0726 30.155 30.2159 30.0956 30.3654 30.0956C30.5149 30.0956 30.6583 30.155 30.7639 30.2607C30.8697 30.3664 30.929 30.5098 30.929 30.6593V36.8502C30.929 37.1614 30.6768 37.4137 30.3655 37.4137Z" fill="white"/>
<path fill-rule="evenodd" clip-rule="evenodd" d="M33.7115 26.2838V41.2254C33.7116 41.512 33.8255 41.7871 34.0281 41.9899C34.2309 42.1927 34.5057 42.3067 34.7924 42.307H38.2863C38.573 42.3067 38.8479 42.1927 39.0506 41.9899C39.2533 41.7871 39.3672 41.512 39.3672 41.2254V26.2838C39.3671 25.9971 39.2531 25.7222 39.0505 25.5194C38.8478 25.3166 38.573 25.2025 38.2863 25.2021H34.7924C34.5057 25.2025 34.2309 25.3166 34.0283 25.5194C33.8256 25.7222 33.7117 25.9971 33.7115 26.2838Z" fill="#DAE1E8"/>
<path d="M40.493 39.9343V27.5913L40.4933 27.5757C40.4979 27.3514 40.59 27.1376 40.7501 26.9804C40.9102 26.8231 41.1256 26.7349 41.3499 26.7344H43.5635C44.2815 26.7337 44.9769 26.9858 45.5278 27.4466C45.552 27.4717 45.5785 27.4945 45.607 27.5148C45.9303 27.8025 46.189 28.1552 46.3662 28.5501C46.5433 28.945 46.6348 29.3728 46.6347 29.8056V37.7035C46.6347 39.3965 45.2562 40.7747 43.5635 40.7747H41.3496C41.1254 40.7743 40.9101 40.6861 40.7501 40.5291C40.5899 40.372 40.4977 40.1585 40.493 39.9343Z" fill="#D73227"/>
<path fill-rule="evenodd" clip-rule="evenodd" d="M42.3989 25.6076H43.5647C44.2111 25.6076 44.8238 25.7541 45.3713 26.0163V19.43C45.3713 14.6502 43.6107 10.6645 39.8306 6.88401C36.4406 3.49468 31.7077 1.62695 26.5049 1.62695H21.2574C16.054 1.62695 11.3214 3.49468 7.93139 6.88401C4.15129 10.6647 2.39111 14.6502 2.39111 19.4297V26.0163C2.95494 25.7465 3.57214 25.6069 4.19725 25.6076H5.36309V19.4297C5.36309 15.5577 6.88302 11.9055 9.64299 9.14549C12.4034 6.38483 16.0556 4.86483 19.9275 4.86483H27.8351C31.7067 4.86483 35.3589 6.38517 38.119 9.14514C40.8789 11.9055 42.3989 15.5577 42.3989 19.4297V25.6076Z" fill="#DAE1E8"/>
<path fill-rule="evenodd" clip-rule="evenodd" d="M14.0504 41.2254V26.2835C14.0502 25.9969 13.9363 25.7221 13.7337 25.5194C13.5311 25.3167 13.2564 25.2026 12.9699 25.2021H9.47603C9.18927 25.2025 8.91447 25.3166 8.71181 25.5194C8.50914 25.7222 8.39523 25.9971 8.39503 26.2838V41.2254C8.3953 41.5119 8.50921 41.7867 8.71181 41.9894C8.9144 42.1921 9.18907 42.3062 9.47569 42.3066H12.9702C13.2568 42.3063 13.5316 42.1922 13.7342 41.9895C13.9367 41.7868 14.0503 41.512 14.0504 41.2254ZM7.50275 46.0507C5.91123 45.0453 4.95877 43.6845 4.60263 41.9016H4.19764C3.82453 41.9016 3.46275 41.853 3.11829 41.7611C3.46543 44.1694 4.63162 45.9339 6.73997 47.2658C9.11522 48.7668 12.7914 49.6188 17.6754 49.8005C17.5645 49.3256 17.5707 48.8308 17.6938 48.3588C13.0294 48.1904 9.68996 47.4329 7.50275 46.0507Z" fill="#DAE1E8"/>
<path fill-rule="evenodd" clip-rule="evenodd" d="M22.8126 24.1788C23.1668 24.229 23.5259 24.2537 23.8803 24.2537C28.0405 24.2537 31.4251 20.869 31.4251 16.7082C31.4251 12.5487 28.0405 9.16406 23.8803 9.16406C19.7202 9.16406 16.3351 12.5487 16.3351 16.7082C16.3351 18.6651 17.0807 20.5206 18.4352 21.9317C18.5523 22.0535 18.6082 22.2229 18.5876 22.3906L18.0861 26.4702L22.4779 24.2337C22.581 24.1821 22.6978 24.1622 22.8126 24.1788ZM22.6043 20.0872H18.8202C18.7057 20.0871 18.5939 20.052 18.4998 19.9867C18.4057 19.9214 18.3337 19.829 18.2934 19.7218C18.2531 19.6146 18.2464 19.4976 18.2742 19.3865C18.3021 19.2754 18.3631 19.1754 18.4492 19.0998L21.6621 16.2879C22.0209 15.9548 21.9643 15.5447 21.8528 15.2595C21.6511 14.7406 21.1526 14.3509 20.6936 14.3509C20.3415 14.3512 20.0038 14.4912 19.7547 14.7401C19.5057 14.989 19.3655 15.3267 19.365 15.6789V16.228C19.36 16.374 19.2985 16.5125 19.1934 16.6141C19.0882 16.7156 18.9478 16.7724 18.8016 16.7724C18.6554 16.7724 18.515 16.7156 18.4099 16.6141C18.3048 16.5125 18.2432 16.374 18.2381 16.228V15.6789C18.2381 14.325 19.3398 13.2237 20.6936 13.2237C21.6212 13.2237 22.5298 13.892 22.9032 14.8498C23.2316 15.6928 23.051 16.5415 22.4203 17.1216L22.4103 17.1309L20.3196 18.96H22.6043C22.7538 18.96 22.8971 19.0194 23.0029 19.1251C23.1085 19.2308 23.168 19.3741 23.168 19.5236C23.168 19.6731 23.1085 19.8165 23.0029 19.9221C22.8971 20.0279 22.7538 20.0872 22.6043 20.0872ZM26.9608 18.4142H24.4171C24.3121 18.4141 24.2092 18.3847 24.1199 18.3293C24.0307 18.2739 23.9586 18.1947 23.9119 18.1007C23.8654 18.0064 23.8462 17.9008 23.8563 17.7961C23.8665 17.6914 23.9057 17.5916 23.9695 17.5079L27.0769 13.4444C27.1487 13.3509 27.2478 13.2822 27.3605 13.248C27.4732 13.2138 27.5938 13.2158 27.7053 13.2536C27.8168 13.2914 27.9137 13.3632 27.9823 13.4589C28.051 13.5546 28.0879 13.6694 28.0881 13.7871V17.287H28.959C29.1085 17.287 29.2519 17.3464 29.3575 17.4521C29.4632 17.5577 29.5226 17.7011 29.5226 17.8506C29.5226 18 29.4632 18.1434 29.3575 18.2491C29.2519 18.3548 29.1085 18.4142 28.959 18.4142H28.0877V19.5235C28.0827 19.6695 28.0211 19.808 27.916 19.9096C27.8109 20.0111 27.6704 20.0678 27.5242 20.0678C27.378 20.0678 27.2376 20.0111 27.1325 19.9096C27.0274 19.808 26.9658 19.6695 26.9608 19.5235V18.4142Z" fill="#D73227"/>
<path fill-rule="evenodd" clip-rule="evenodd" d="M25.5587 17.2877H26.9625V15.4512L25.5587 17.2877Z" fill="#D73227"/>
</svg>
