<svg width="96" height="96" viewBox="0 0 96 96" fill="none" xmlns="http://www.w3.org/2000/svg">
<path d="M58.2 89.68C56.88 89.68 55.64 88.8 55.28 87.44C54.84 85.84 55.8 84.2 57.44 83.76C73.68 79.48 85 64.76 85 47.96C85 27.56 68.4 10.96 48 10.96C30.68 10.96 19.32 21.08 14 27.2H25.76C27.4 27.2 28.76 28.56 28.76 30.2C28.76 31.84 27.44 33.24 25.76 33.24H8.04C7.84 33.24 7.48 33.2 7.2 33.12C6.84 33 6.52 32.84 6.24 32.64C5.88 32.4 5.6 32.08 5.4 31.72C5.2 31.36 5.04 30.92 5 30.48C5 30.36 5 30.28 5 30.16V12C5 10.36 6.36 9 8 9C9.64 9 11 10.36 11 12V21.56C17.52 14.56 29.8 5 48 5C71.72 5 91 24.28 91 48C91 67.52 77.84 84.64 58.96 89.6C58.72 89.64 58.44 89.68 58.2 89.68Z" fill="#98A1AB"/>
<path d="M45.16 90.92C45.08 90.92 45 90.88 44.96 90.88C40.64 90.6 36.4 89.64 32.4 88.08C31.24 87.64 30.44 86.48 30.48 85.24C30.48 84.88 30.56 84.52 30.68 84.2C31.28 82.68 33.08 81.92 34.56 82.48C38.04 83.84 41.68 84.64 45.36 84.92C46.92 85 48.16 86.36 48.16 87.96L48.12 88.12C48.04 89.68 46.72 90.92 45.16 90.92ZM23.12 82.32C22.44 82.32 21.8 82.08 21.24 81.68C17.88 78.96 14.92 75.8 12.52 72.28C12.16 71.76 11.96 71.2 11.96 70.6C11.96 69.6 12.44 68.68 13.28 68.12C14.6 67.2 16.52 67.56 17.44 68.84C17.44 68.88 17.44 68.88 17.44 68.88C17.48 68.92 17.52 69 17.56 69.04C19.64 72.04 22.16 74.72 25 76.96C25.68 77.52 26.12 78.36 26.12 79.28C26.12 79.96 25.92 80.64 25.48 81.2C24.88 81.92 24.04 82.32 23.12 82.32ZM9.76 62.8C8.44 62.8 7.28 61.96 6.92 60.72C5.64 56.6 5 52.32 5 48V47.96C5.04 46.32 6.36 45 8 45C9.64 45 11 46.36 11 48C11 51.76 11.56 55.44 12.64 58.92C12.72 59.24 12.76 59.52 12.76 59.84C12.76 61.12 11.92 62.28 10.64 62.68C10.36 62.76 10.08 62.8 9.76 62.8Z" fill="#98A1AB"/>
</svg>
