<svg width="20" height="20" viewBox="0 0 20 20" fill="none" xmlns="http://www.w3.org/2000/svg">
<g opacity="0.8" clip-path="url(#clip0_72_3893)">
<g clip-path="url(#clip1_72_3893)">
<path d="M16.6667 2.5H3.33337C1.95275 2.5 0.833374 3.61937 0.833374 5V15C0.833374 16.3806 1.95275 17.5 3.33337 17.5H16.6667C18.0473 17.5 19.1667 16.3806 19.1667 15V5C19.1667 3.61937 18.0473 2.5 16.6667 2.5ZM16.6667 4.16667C16.763 4.16667 16.8555 4.18292 16.9413 4.21312L10 9.76625L3.05879 4.21312C3.14462 4.18292 3.23712 4.16667 3.33337 4.16667H16.6667ZM16.6667 15.8333H3.33337C2.87317 15.8333 2.50004 15.4602 2.50004 15V5.90042L9.47942 11.484C9.6315 11.6058 9.81567 11.6667 10 11.6667C10.1844 11.6667 10.3686 11.6058 10.5207 11.484L17.5 5.90042V15C17.5 15.4602 17.1269 15.8333 16.6667 15.8333Z" fill="#1E54DD"/>
</g>
</g>
<defs>
<clipPath id="clip0_72_3893">
<rect width="20" height="20" fill="white"/>
</clipPath>
<clipPath id="clip1_72_3893">
<rect width="20" height="20" fill="white"/>
</clipPath>
</defs>
</svg>
