<svg width="20" height="20" viewBox="0 0 20 20" fill="none" xmlns="http://www.w3.org/2000/svg">
<g opacity="0.8" clip-path="url(#clip0_72_3890)">
<g clip-path="url(#clip1_72_3890)">
<g clip-path="url(#clip2_72_3890)">
<path d="M0.345161 9.73575L5.23613 12.289C5.42531 12.3867 5.64865 12.3797 5.82948 12.2689L10.1829 9.61791L7.54787 12.0637C7.4137 12.1886 7.33702 12.3667 7.33702 12.5543V18.5119C7.33702 19.1403 8.10288 19.4048 8.46208 18.9056L10.5762 15.9612L15.8047 19.0802C16.1714 19.301 16.6415 19.0792 16.7265 18.6402L19.9874 1.6187C20.0849 1.10718 19.5991 0.689937 19.1473 0.880228L0.396829 8.53989C-0.106518 8.7459 -0.139019 9.48349 0.345161 9.73575ZM18.5373 2.53524L15.6714 17.4941L10.7171 14.5384C10.4471 14.377 10.0996 14.4486 9.90792 14.7139L8.58708 16.5531V12.8485L15.7131 6.23545C16.2772 5.71259 15.6289 4.78295 14.9848 5.17924L5.49281 10.9596L2.16605 9.22341L18.5373 2.53524Z" fill="#0088CC"/>
</g>
</g>
</g>
<defs>
<clipPath id="clip0_72_3890">
<rect width="20" height="20" fill="white"/>
</clipPath>
<clipPath id="clip1_72_3890">
<rect width="20" height="20" fill="white"/>
</clipPath>
<clipPath id="clip2_72_3890">
<rect width="20" height="18.3333" fill="white" transform="translate(0 0.833328)"/>
</clipPath>
</defs>
</svg>
