<svg width="20" height="20" viewBox="0 0 20 20" fill="none" xmlns="http://www.w3.org/2000/svg">
<g opacity="0.8" clip-path="url(#clip0_72_3892)">
<g clip-path="url(#clip1_72_3892)">
<g clip-path="url(#clip2_72_3892)">
<path fill-rule="evenodd" clip-rule="evenodd" d="M19.0422 11.5783C19.6431 6.56022 18.7536 3.39219 17.1491 1.95928L17.1499 1.95845C14.5603 -0.488561 5.8145 -0.850744 2.71631 2.06835C1.32498 3.49626 0.834907 5.59191 0.7812 8.18631C0.727494 10.7815 0.663717 15.6431 5.22961 16.9618H5.2338L5.22961 18.9759C5.22961 18.9759 5.19856 19.7918 5.72387 19.9559C6.28969 20.1378 6.56378 19.8125 8.15445 17.9245C8.25293 17.8075 8.35646 17.6846 8.46544 17.5555C11.5904 17.8245 13.9904 17.2083 14.2632 17.1184C14.3195 17.0997 14.3994 17.0788 14.4984 17.0531C15.5081 16.7898 18.5164 16.0056 19.0422 11.5783ZM8.77336 16.1385C8.77336 16.1385 6.79549 18.5855 6.18038 19.2207C5.97898 19.4272 5.75828 19.4081 5.76163 18.9984C5.76163 18.7295 5.77674 15.6547 5.77674 15.6547C2.03871 14.5918 2.12309 10.6952 2.17108 8.47877C2.17279 8.39985 2.17445 8.32316 2.17589 8.24877C2.21785 6.08231 2.61729 4.30804 3.79548 3.11326C6.51353 0.584659 14.181 1.14999 16.1345 2.97172C18.3084 4.88379 17.7993 9.97246 17.6941 11.0233C17.6837 11.1269 17.6773 11.1913 17.6777 11.2095C17.2358 14.8633 14.846 15.4358 13.9859 15.6419C13.8907 15.6647 13.8144 15.683 13.7614 15.7005C13.534 15.7755 11.4234 16.3142 8.77336 16.1385ZM9.86767 3.58866C9.54459 3.58866 9.54459 4.08822 9.86767 4.09238C12.3743 4.11153 14.4386 5.845 14.4613 9.02469C14.4613 9.36023 14.9564 9.35608 14.9522 9.02054H14.9514C14.9245 5.59439 12.6705 3.60781 9.86767 3.58866ZM13.6557 8.50931C13.6515 8.84485 13.1572 8.829 13.1647 8.49769C13.2034 6.84329 12.1955 5.54776 10.2822 5.40372C9.95998 5.38041 9.9936 4.87669 10.3167 4.89999C12.5228 5.06402 13.6968 6.62015 13.6557 8.50931ZM12.6362 10.6466C12.2217 10.4085 11.7995 10.5567 11.625 10.7906L11.26 11.2594C11.0745 11.4975 10.728 11.4659 10.728 11.4659C8.1987 10.8023 7.52233 8.17631 7.52233 8.17631C7.52233 8.17631 7.49129 7.82077 7.7229 7.63011L8.1794 7.25544C8.40766 7.07559 8.55198 6.64264 8.31954 6.21719C7.85131 5.37782 7.49902 4.95313 7.26302 4.66864C7.18603 4.57583 7.12141 4.49793 7.06919 4.42543C6.84597 4.14818 6.5103 4.08573 6.16121 4.27306H6.15366C5.42778 4.69436 4.63309 5.48283 4.88736 6.29462C4.96259 6.44303 5.04874 6.64775 5.15302 6.89552C5.65011 8.07668 6.55903 10.2365 8.65944 11.9405C9.85352 12.9155 11.7434 13.9145 12.5456 14.1452L12.5531 14.1568C13.3436 14.4183 14.1123 13.599 14.5227 12.8572V12.8513C14.7047 12.4925 14.6443 12.1528 14.3783 11.9305C13.9067 11.4742 13.1951 10.9705 12.6362 10.6466ZM11.9018 8.08131C11.8599 7.22291 11.4688 6.80494 10.6624 6.75832C10.336 6.73917 10.3662 6.23545 10.6893 6.25459C11.75 6.31288 12.3391 6.93732 12.3927 8.058C12.4079 8.39354 11.917 8.41685 11.9018 8.08131Z" fill="#59267C"/>
</g>
</g>
</g>
<defs>
<clipPath id="clip0_72_3892">
<rect width="20" height="20" fill="white"/>
</clipPath>
<clipPath id="clip1_72_3892">
<rect width="20" height="20" fill="white"/>
</clipPath>
<clipPath id="clip2_72_3892">
<rect width="18.4615" height="20" fill="white" transform="translate(0.769287)"/>
</clipPath>
</defs>
</svg>
