<svg width="44" height="44" viewBox="0 0 44 44" fill="none" xmlns="http://www.w3.org/2000/svg">
<g id="vuesax/outline/designtools">
<g id="designtools">
<path id="Vector" d="M19.1215 33.6784C18.8465 33.6784 18.5898 33.605 18.3515 33.44C17.9665 33.1834 17.7465 32.7617 17.7465 32.3034C17.7465 32.0284 17.7282 31.735 17.6915 31.4417C17.5265 30.14 16.9398 29.0034 15.9498 28.0134C14.9598 27.0234 13.7315 26.4 12.4115 26.235C12.1915 26.2167 11.8798 26.1984 11.5865 26.2167C11.1098 26.2534 10.6698 26.0517 10.3948 25.6667C10.1198 25.3 10.0465 24.805 10.1932 24.365C10.4682 23.6134 10.8715 22.935 11.3482 22.385L14.1715 18.8284C19.0298 12.76 28.8748 5.46335 36.0798 2.56669C37.6198 1.98002 39.2332 2.32835 40.3515 3.42835C41.5065 4.58335 41.8548 6.23335 41.2498 7.73669C38.3532 14.96 31.0748 24.7867 25.0065 29.645L21.3948 32.5417C20.7165 33.0367 20.1665 33.3484 19.6165 33.5684C19.4698 33.6417 19.2865 33.6784 19.1215 33.6784ZM13.8232 23.7234C15.3632 24.1267 16.7382 24.9334 17.8932 26.0884C19.0482 27.225 19.8182 28.545 20.2032 30.0117L23.3015 27.5184C29.0582 22.9167 35.9698 13.585 38.7015 6.72835C38.9765 6.05002 38.5915 5.57335 38.4082 5.40835C38.2798 5.28002 37.8032 4.87669 37.0698 5.15169C30.2498 7.90169 20.9182 14.8134 16.2982 20.57L13.8232 23.7234Z" fill="#D73227"/>
<path id="Vector_2" d="M7.47984 41.7084C6.10484 41.7084 4.78484 41.1584 3.79484 40.1684C2.65817 39.0317 2.10817 37.455 2.2915 35.8417L2.7865 31.3317C3.26317 26.8584 6.92984 23.54 11.4765 23.4484C11.8248 23.43 12.2832 23.4484 12.7048 23.485C14.7032 23.7417 16.4815 24.64 17.9115 26.07C19.3232 27.4817 20.1665 29.1684 20.4232 31.0567C20.4782 31.46 20.5148 31.9 20.5148 32.285C20.5148 34.705 19.5798 36.96 17.8932 38.665C16.4815 40.0584 14.6665 40.92 12.6132 41.1767L8.08484 41.6717C7.88317 41.69 7.6815 41.7084 7.47984 41.7084ZM11.8248 26.2167C11.7515 26.2167 11.6598 26.2167 11.5865 26.2167C8.81817 26.2717 5.88484 28.16 5.51817 31.6434L5.02317 36.1534C4.9315 36.9234 5.2065 37.675 5.73817 38.225C6.26984 38.7567 7.0215 39.0317 7.77317 38.94L12.2832 38.445C13.6948 38.2617 14.9598 37.675 15.9132 36.7217C17.0865 35.5484 17.7465 33.9717 17.7465 32.285C17.7465 32.01 17.7282 31.7167 17.6915 31.4234C17.5265 30.1217 16.9398 28.985 15.9498 27.995C14.9598 27.005 13.7315 26.3817 12.4115 26.2167C12.2648 26.2167 12.0448 26.2167 11.8248 26.2167Z" fill="#D73227"/>
<path id="Vector_3" d="M26.1062 27.9034C25.3546 27.9034 24.7312 27.28 24.7312 26.5284C24.7312 22.495 21.4496 19.2317 17.4346 19.2317C16.6829 19.2317 16.0596 18.6084 16.0596 17.8567C16.0596 17.105 16.6646 16.4817 17.4162 16.4817C22.9529 16.4817 27.4629 20.9917 27.4629 26.5284C27.4812 27.2984 26.8579 27.9034 26.1062 27.9034Z" fill="#D73227"/>
<path id="Vector_4" d="M28.7471 41.6716C27.0421 41.6716 25.3371 40.865 23.7054 39.2333C23.1737 38.7016 23.1737 37.8216 23.7054 37.29C24.2371 36.7583 25.1171 36.7583 25.6487 37.29C27.8121 39.4533 29.6637 39.4533 31.8271 37.29L37.2537 31.8633C39.4354 29.6816 39.4354 27.83 37.2537 25.6666L35.8971 24.3283C35.3654 23.7966 35.3471 22.9166 35.8787 22.385C36.4104 21.835 37.2904 21.835 37.8221 22.3666L39.1787 23.705C42.4421 26.9683 42.4421 30.5433 39.1787 33.8066L33.7521 39.2333C32.1571 40.8466 30.4521 41.6716 28.7471 41.6716Z" fill="#D73227"/>
<path id="Vector_5" d="M5.70124 20.6433C5.3529 20.6433 4.98624 20.515 4.72957 20.24C1.5029 16.995 1.5029 13.4017 4.72957 10.1567L10.1562 4.73C13.3829 1.50333 17.0129 1.50333 20.2396 4.73L21.5962 6.08666C22.1279 6.61833 22.1279 7.49833 21.5962 8.03C21.0646 8.56166 20.1846 8.56166 19.6529 8.03L18.2779 6.67333C16.1146 4.51 14.2446 4.51 12.0996 6.67333L6.6729 12.1C4.50957 14.2817 4.50957 16.1333 6.6729 18.315C7.20457 18.8467 7.20457 19.7267 6.6729 20.2583C6.3979 20.515 6.04957 20.6433 5.70124 20.6433Z" fill="#D73227"/>
<path id="Vector_6" d="M13.8421 15.2167C13.4938 15.2167 13.1454 15.0883 12.8704 14.8133C12.3388 14.2817 12.3388 13.4017 12.8704 12.87L19.6538 6.08668C20.1854 5.55501 21.0654 5.55501 21.5971 6.08668C22.1288 6.61834 22.1288 7.49834 21.5971 8.03001L14.8138 14.8133C14.5388 15.0883 14.1904 15.2167 13.8421 15.2167Z" fill="#D73227"/>
<path id="Vector_7" d="M31.4603 30.1217C31.1119 30.1217 30.7636 29.9933 30.4886 29.7183C29.9569 29.1867 29.9569 28.3067 30.4886 27.775L35.9153 22.3483C36.4469 21.8167 37.3269 21.8167 37.8586 22.3483C38.3903 22.88 38.3903 23.76 37.8586 24.2917L32.4319 29.7183C32.1753 29.9933 31.8269 30.1217 31.4603 30.1217Z" fill="#D73227"/>
</g>
</g>
</svg>
