<svg width="44" height="44" viewBox="0 0 44 44" fill="none" xmlns="http://www.w3.org/2000/svg">
<path d="M10.0837 19.7083C5.79366 19.7083 2.29199 16.2067 2.29199 11.9167C2.29199 7.62667 5.79366 4.125 10.0837 4.125C14.3737 4.125 17.8753 7.62667 17.8753 11.9167C17.8753 16.2067 14.3737 19.7083 10.0837 19.7083ZM10.0837 6.875C7.29699 6.875 5.04199 9.13 5.04199 11.9167C5.04199 14.7033 7.29699 16.9583 10.0837 16.9583C12.8703 16.9583 15.1253 14.7033 15.1253 11.9167C15.1253 9.13 12.8703 6.875 10.0837 6.875Z" fill="#D73227"/>
<path d="M10.0837 39.875C5.79366 39.875 2.29199 36.3733 2.29199 32.0833C2.29199 27.7933 5.79366 24.2917 10.0837 24.2917C14.3737 24.2917 17.8753 27.7933 17.8753 32.0833C17.8753 36.3733 14.3737 39.875 10.0837 39.875ZM10.0837 27.0417C7.29699 27.0417 5.04199 29.2967 5.04199 32.0833C5.04199 34.87 7.29699 37.125 10.0837 37.125C12.8703 37.125 15.1253 34.87 15.1253 32.0833C15.1253 29.2967 12.8703 27.0417 10.0837 27.0417Z" fill="#D73227"/>
<path d="M15.8589 30.6717C15.4372 30.6717 15.0339 30.4884 14.7589 30.1217C14.3005 29.5167 14.4289 28.655 15.0339 28.1967L39.5089 9.90006C40.1139 9.44172 40.9756 9.57006 41.4339 10.1751C41.8922 10.7801 41.7639 11.6417 41.1589 12.1001L16.6839 30.3967C16.4456 30.5801 16.1522 30.6717 15.8589 30.6717Z" fill="#D73227"/>
<path d="M40.3339 34.32C40.0406 34.32 39.7655 34.2284 39.5089 34.045L15.0339 15.7484C14.4289 15.29 14.3005 14.4284 14.7589 13.8234C15.2172 13.2184 16.0789 13.09 16.6839 13.5484L41.1589 31.845C41.7639 32.3034 41.8922 33.165 41.4339 33.77C41.1589 34.1184 40.7556 34.32 40.3339 34.32Z" fill="#D73227"/>
</svg>
