<svg width="44" height="44" viewBox="0 0 44 44" fill="none" xmlns="http://www.w3.org/2000/svg">
<g id="vuesax/outline/truck-fast">
<g id="truck-fast">
<path id="Vector" d="M23.8326 27.0417H21.9993C21.2476 27.0417 20.6243 26.4183 20.6243 25.6667C20.6243 24.915 21.2476 24.2917 21.9993 24.2917H23.8326C25.0976 24.2917 26.1243 23.265 26.1243 22V5.04166H10.9993C8.83593 5.04166 6.85588 6.21496 5.79255 8.10329C5.42588 8.76329 4.58263 9.0017 3.92263 8.63503C3.26263 8.26836 3.02422 7.42499 3.39089 6.76499C4.93089 4.01499 7.84593 2.29166 10.9993 2.29166H27.4993C28.2509 2.29166 28.8743 2.91499 28.8743 3.66666V22C28.8743 24.7867 26.6193 27.0417 23.8326 27.0417Z" fill="#D73227"/>
<path id="Vector_2" d="M34.8337 38.0417H33.0003C32.2487 38.0417 31.6253 37.4183 31.6253 36.6667C31.6253 35.4017 30.5987 34.375 29.3337 34.375C28.0687 34.375 27.042 35.4017 27.042 36.6667C27.042 37.4183 26.4187 38.0417 25.667 38.0417H18.3337C17.582 38.0417 16.9587 37.4183 16.9587 36.6667C16.9587 35.4017 15.932 34.375 14.667 34.375C13.402 34.375 12.3753 35.4017 12.3753 36.6667C12.3753 37.4183 11.752 38.0417 11.0003 38.0417H9.16699C5.37199 38.0417 2.29199 34.9617 2.29199 31.1667C2.29199 30.415 2.91533 29.7917 3.66699 29.7917C4.41866 29.7917 5.04199 30.415 5.04199 31.1667C5.04199 33.44 6.89366 35.2917 9.16699 35.2917H9.80861C10.4136 33.1833 12.357 31.625 14.667 31.625C16.977 31.625 18.9204 33.1833 19.5254 35.2917H24.4936C25.0986 33.1833 27.042 31.625 29.352 31.625C31.662 31.625 33.6053 33.1833 34.2103 35.2917H34.8337C37.107 35.2917 38.9587 33.44 38.9587 31.1667V27.0417H34.8337C33.0737 27.0417 31.6253 25.5933 31.6253 23.8333V18.3333C31.6253 16.5733 33.0553 15.125 34.8337 15.125L32.872 11.6967C32.4686 10.9817 31.6987 10.5417 30.8737 10.5417H28.8753V22C28.8753 24.7867 26.6203 27.0417 23.8337 27.0417H22.0003C21.2487 27.0417 20.6253 26.4183 20.6253 25.6667C20.6253 24.915 21.2487 24.2917 22.0003 24.2917H23.8337C25.0987 24.2917 26.1253 23.265 26.1253 22V9.16666C26.1253 8.41499 26.7487 7.79166 27.5003 7.79166H30.8737C32.6887 7.79166 34.357 8.76335 35.2553 10.34L38.3903 15.8217C38.6287 16.2433 38.6287 16.775 38.3903 17.1967C38.152 17.6183 37.6936 17.875 37.1986 17.875H34.8337C34.577 17.875 34.3753 18.0767 34.3753 18.3333V23.8333C34.3753 24.09 34.577 24.2917 34.8337 24.2917H40.3337C41.0853 24.2917 41.7087 24.915 41.7087 25.6667V31.1667C41.7087 34.9617 38.6287 38.0417 34.8337 38.0417Z" fill="#D73227"/>
<path id="Vector_3" d="M14.6667 41.7083C11.88 41.7083 9.625 39.4533 9.625 36.6667C9.625 33.88 11.88 31.625 14.6667 31.625C17.4533 31.625 19.7083 33.88 19.7083 36.6667C19.7083 39.4533 17.4533 41.7083 14.6667 41.7083ZM14.6667 34.375C13.4017 34.375 12.375 35.4017 12.375 36.6667C12.375 37.9317 13.4017 38.9583 14.6667 38.9583C15.9317 38.9583 16.9583 37.9317 16.9583 36.6667C16.9583 35.4017 15.9317 34.375 14.6667 34.375Z" fill="#D73227"/>
<path id="Vector_4" d="M29.3337 41.7083C26.547 41.7083 24.292 39.4533 24.292 36.6667C24.292 33.88 26.547 31.625 29.3337 31.625C32.1203 31.625 34.3753 33.88 34.3753 36.6667C34.3753 39.4533 32.1203 41.7083 29.3337 41.7083ZM29.3337 34.375C28.0687 34.375 27.042 35.4017 27.042 36.6667C27.042 37.9317 28.0687 38.9583 29.3337 38.9583C30.5987 38.9583 31.6253 37.9317 31.6253 36.6667C31.6253 35.4017 30.5987 34.375 29.3337 34.375Z" fill="#D73227"/>
<path id="Vector_5" d="M40.3333 27.0417H34.8333C33.0733 27.0417 31.625 25.5933 31.625 23.8333V18.3333C31.625 16.5733 33.0733 15.125 34.8333 15.125H37.1983C37.6933 15.125 38.1517 15.3817 38.39 15.8217L41.525 21.3217C41.635 21.5233 41.7083 21.7617 41.7083 22V25.6667C41.7083 26.4183 41.085 27.0417 40.3333 27.0417ZM34.8333 17.875C34.5767 17.875 34.375 18.0767 34.375 18.3333V23.8333C34.375 24.09 34.5767 24.2917 34.8333 24.2917H38.9583V22.3667L36.3916 17.875H34.8333Z" fill="#D73227"/>
<path id="Vector_6" d="M14.667 16.0417H3.66699C2.91533 16.0417 2.29199 15.4183 2.29199 14.6667C2.29199 13.915 2.91533 13.2917 3.66699 13.2917H14.667C15.4187 13.2917 16.042 13.915 16.042 14.6667C16.042 15.4183 15.4187 16.0417 14.667 16.0417Z" fill="#D73227"/>
<path id="Vector_7" d="M11.0003 21.5417H3.66699C2.91533 21.5417 2.29199 20.9183 2.29199 20.1667C2.29199 19.415 2.91533 18.7917 3.66699 18.7917H11.0003C11.752 18.7917 12.3753 19.415 12.3753 20.1667C12.3753 20.9183 11.752 21.5417 11.0003 21.5417Z" fill="#D73227"/>
<path id="Vector_8" d="M7.33366 27.0417H3.66699C2.91533 27.0417 2.29199 26.4183 2.29199 25.6667C2.29199 24.915 2.91533 24.2917 3.66699 24.2917H7.33366C8.08532 24.2917 8.70866 24.915 8.70866 25.6667C8.70866 26.4183 8.08532 27.0417 7.33366 27.0417Z" fill="#D73227"/>
</g>
</g>
</svg>
