<svg width="44" height="44" viewBox="0 0 44 44" fill="none" xmlns="http://www.w3.org/2000/svg">
<path d="M29.8471 40.5167H22.8805C21.8538 40.5167 19.6171 40.205 18.4255 39.0133L12.8705 34.7233L14.5571 32.5417L20.2405 36.9417C20.6988 37.3817 21.8538 37.7483 22.8805 37.7483H29.8471C31.4971 37.7483 33.2755 36.4283 33.6421 34.9433L38.0788 21.4683C38.3721 20.6617 38.3171 19.9283 37.9321 19.3967C37.5288 18.8283 36.7955 18.4983 35.8971 18.4983H28.5638C27.6105 18.4983 26.7305 18.095 26.1255 17.3983C25.5021 16.6833 25.2271 15.73 25.3738 14.74L26.2905 8.85499C26.5105 7.82832 25.8138 6.67333 24.8238 6.34333C23.9255 6.01333 22.7705 6.48999 22.3671 7.07666L14.8505 18.26L12.5771 16.7383L20.0938 5.55499C21.2488 3.83166 23.7788 3.00666 25.7588 3.75833C28.0505 4.50999 29.5171 7.03999 29.0038 9.38666L28.1055 15.1617C28.0871 15.29 28.0871 15.4733 28.2155 15.62C28.3071 15.7117 28.4355 15.7667 28.5821 15.7667H35.9155C37.7121 15.7667 39.2705 16.5183 40.1871 17.82C41.0855 19.085 41.2688 20.7533 40.6821 22.3667L36.3005 35.7133C35.6221 38.3717 32.7988 40.5167 29.8471 40.5167Z" fill="#D73227"/>
<path d="M9.86328 38.5H8.02995C4.63828 38.5 2.98828 36.905 2.98828 33.6417V15.675C2.98828 12.4117 4.63828 10.8167 8.02995 10.8167H9.86328C13.2549 10.8167 14.9049 12.4117 14.9049 15.675V33.6417C14.9049 36.905 13.2549 38.5 9.86328 38.5ZM8.02995 13.5667C6.03161 13.5667 5.73828 14.0433 5.73828 15.675V33.6417C5.73828 35.2733 6.03161 35.75 8.02995 35.75H9.86328C11.8616 35.75 12.1549 35.2733 12.1549 33.6417V15.675C12.1549 14.0433 11.8616 13.5667 9.86328 13.5667H8.02995Z" fill="#D73227"/>
</svg>
