<svg width="45" height="49" viewBox="0 0 45 49" fill="none" xmlns="http://www.w3.org/2000/svg">
<path d="M10.1488 5.78817L11.1435 6.36666L12.101 5.72835L16.6154 2.71875L21.1298 5.72835L22.1538 6.41106L23.1779 5.72835L27.6923 2.71875L32.2067 5.72835L33.2307 6.41106L34.2548 5.72835L38.7692 2.71875L42.4615 5.18028V43.6935L38.7692 46.2535L34.2827 43.1428L33.2307 42.4135L32.1788 43.1428L27.6923 46.2535L23.2058 43.1428L22.1538 42.4135L21.1019 43.1428L16.595 46.2676L12.101 43.2715L11.1435 42.6332L10.1488 43.2118L4.87969 46.2761L1.84613 43.9069V5.09292L4.87969 2.72386L10.1488 5.78817Z" stroke="white" stroke-width="1.5"/>
<path d="M3.69232 14.3462L7.35786 12.1469C7.94252 11.7961 8.67289 11.7961 9.25755 12.1469L11.9732 13.7763C12.5579 14.1271 13.2883 14.1271 13.8729 13.7763L16.5886 12.1469C17.1733 11.7961 17.9037 11.7961 18.4883 12.1469L21.204 13.7763C21.7887 14.1271 22.519 14.1271 23.1037 13.7763L25.8194 12.1469C26.4041 11.7961 27.1344 11.7961 27.7191 12.1469L30.4348 13.7763C31.0195 14.1271 31.7498 14.1271 32.3345 13.7763L35.0502 12.1469C35.6348 11.7961 36.3652 11.7961 36.9499 12.1469L39.3794 13.6046C40.1059 14.0404 41.0356 13.926 41.6347 13.327L42.4616 12.5" stroke="white" stroke-width="1.5" stroke-linecap="round"/>
<path d="M3.69232 25.4233L7.35786 23.224C7.94252 22.8732 8.67289 22.8732 9.25755 23.224L11.9732 24.8534C12.5579 25.2042 13.2883 25.2042 13.8729 24.8534L16.5886 23.224C17.1733 22.8732 17.9037 22.8732 18.4883 23.224L21.204 24.8534C21.7887 25.2042 22.519 25.2042 23.1037 24.8534L25.8194 23.224C26.4041 22.8732 27.1344 22.8732 27.7191 23.224L30.4348 24.8534C31.0195 25.2042 31.7498 25.2042 32.3345 24.8534L35.0502 23.224C35.6348 22.8732 36.3652 22.8732 36.9499 23.224L39.3794 24.6817C40.1059 25.1176 41.0356 25.0032 41.6347 24.4041L42.4616 23.5772" stroke="white" stroke-width="1.5" stroke-linecap="round"/>
<path d="M3.69232 36.5005L7.35786 34.3012C7.94252 33.9504 8.67289 33.9504 9.25755 34.3012L11.9732 35.9306C12.5579 36.2813 13.2883 36.2813 13.8729 35.9306L16.5886 34.3012C17.1733 33.9504 17.9037 33.9504 18.4883 34.3012L21.204 35.9306C21.7887 36.2813 22.519 36.2813 23.1037 35.9306L25.8194 34.3012C26.4041 33.9504 27.1344 33.9504 27.7191 34.3012L30.4348 35.9306C31.0195 36.2813 31.7498 36.2813 32.3345 35.9306L35.0502 34.3012C35.6348 33.9504 36.3652 33.9504 36.9499 34.3012L39.3794 35.7589C40.1059 36.1948 41.0356 36.0803 41.6347 35.4812L42.4616 34.6543" stroke="white" stroke-width="1.5" stroke-linecap="round"/>
</svg>
