<svg width="45" height="49" viewBox="0 0 45 49" fill="none" xmlns="http://www.w3.org/2000/svg">
<g id="Component 10">
<path id="Vector" d="M14.7692 4.19238V46.6539" stroke="white" stroke-width="1.5" stroke-linecap="round"/>
<path id="Vector_2" d="M29.5385 4.19238V46.6539" stroke="white" stroke-width="1.5" stroke-linecap="round"/>
<path id="Vector_3" d="M1.84616 18.9618L8.3077 15.2695L14.7692 18.9618" stroke="white" stroke-width="1.5"/>
<path id="Vector_4" d="M29.5385 18.9618L36 15.2695L42.4615 18.9618" stroke="white" stroke-width="1.5"/>
<path id="Vector_5" d="M1.84616 33.7304L8.3077 30.0381L14.7692 33.7304" stroke="white" stroke-width="1.5"/>
<path id="Vector_6" d="M29.5385 33.7304L36 30.0381L42.4615 33.7304" stroke="white" stroke-width="1.5"/>
<path id="Vector_7" d="M36.9231 2.3457H7.38462C4.32581 2.3457 1.84616 4.82536 1.84616 7.88416V41.1149C1.84616 44.1737 4.32581 46.6534 7.38462 46.6534H36.9231C39.9819 46.6534 42.4615 44.1737 42.4615 41.1149V7.88416C42.4615 4.82536 39.9819 2.3457 36.9231 2.3457Z" stroke="white" stroke-width="1.5"/>
<path id="Vector_8" d="M14.7692 11.5771L22.1538 7.88477L29.5385 11.5771" stroke="white" stroke-width="1.5"/>
<path id="Vector_9" d="M14.7692 26.3466L22.1538 22.6543L29.5385 26.3466" stroke="white" stroke-width="1.5"/>
<path id="Vector_10" d="M14.7692 41.1152L22.1538 37.4229L29.5385 41.1152" stroke="white" stroke-width="1.5"/>
</g>
</svg>
