<svg width="45" height="48" viewBox="0 0 45 48" fill="none" xmlns="http://www.w3.org/2000/svg">
<path d="M10.1488 5.28823L11.1435 5.86672L12.101 5.22841L16.6154 2.21881L21.1298 5.22841L22.1538 5.91112L23.1779 5.22841L27.6923 2.21881L32.2067 5.22841L33.2307 5.91112L34.2548 5.22841L38.7692 2.21881L42.4615 4.68034V43.1935L38.7692 45.7536L34.2827 42.6428L33.2307 41.9136L32.1788 42.6428L27.6923 45.7536L23.2058 42.6428L22.1538 41.9136L21.1019 42.6428L16.595 45.7676L12.101 42.7715L11.1435 42.1333L10.1488 42.7119L4.87969 45.7761L1.84613 43.407V4.59298L4.87969 2.22392L10.1488 5.28823Z" stroke="#D73227" stroke-width="1.5"/>
<path d="M3.69232 13.8461L7.35786 11.6468C7.94252 11.296 8.67289 11.296 9.25755 11.6468L11.9732 13.2762C12.5579 13.627 13.2883 13.627 13.8729 13.2762L16.5886 11.6468C17.1733 11.296 17.9037 11.296 18.4883 11.6468L21.204 13.2762C21.7887 13.627 22.519 13.627 23.1037 13.2762L25.8194 11.6468C26.4041 11.296 27.1344 11.296 27.7191 11.6468L30.4348 13.2762C31.0195 13.627 31.7498 13.627 32.3345 13.2762L35.0502 11.6468C35.6348 11.296 36.3652 11.296 36.9499 11.6468L39.3794 13.1045C40.1059 13.5404 41.0356 13.4259 41.6347 12.8269L42.4616 12" stroke="#D73227" stroke-width="1.5" stroke-linecap="round"/>
<path d="M3.69232 24.9231L7.35786 22.7238C7.94252 22.373 8.67289 22.373 9.25755 22.7238L11.9732 24.3532C12.5579 24.704 13.2883 24.704 13.8729 24.3532L16.5886 22.7238C17.1733 22.373 17.9037 22.373 18.4883 22.7238L21.204 24.3532C21.7887 24.704 22.519 24.704 23.1037 24.3532L25.8194 22.7238C26.4041 22.373 27.1344 22.373 27.7191 22.7238L30.4348 24.3532C31.0195 24.704 31.7498 24.704 32.3345 24.3532L35.0502 22.7238C35.6348 22.373 36.3652 22.373 36.9499 22.7238L39.3794 24.1815C40.1059 24.6174 41.0356 24.5029 41.6347 23.9038L42.4616 23.0769" stroke="#D73227" stroke-width="1.5" stroke-linecap="round"/>
<path d="M3.69232 36L7.35786 33.8007C7.94252 33.4499 8.67289 33.4499 9.25755 33.8007L11.9732 35.4301C12.5579 35.7809 13.2883 35.7809 13.8729 35.4301L16.5886 33.8007C17.1733 33.4499 17.9037 33.4499 18.4883 33.8007L21.204 35.4301C21.7887 35.7809 22.519 35.7809 23.1037 35.4301L25.8194 33.8007C26.4041 33.4499 27.1344 33.4499 27.7191 33.8007L30.4348 35.4301C31.0195 35.7809 31.7498 35.7809 32.3345 35.4301L35.0502 33.8007C35.6348 33.4499 36.3652 33.4499 36.9499 33.8007L39.3794 35.2584C40.1059 35.6943 41.0356 35.5798 41.6347 34.9807L42.4616 34.1538" stroke="#D73227" stroke-width="1.5" stroke-linecap="round"/>
</svg>
