<svg width="24" height="26" viewBox="0 0 24 26" fill="none" xmlns="http://www.w3.org/2000/svg">
<g clip-path="url(#clip0_98_3235)">
<path d="M1 7.99999L3 6.79999C3.3 6.59999 3.7 6.59999 4 6.79999L5.5 7.69999C5.8 7.89999 6.2 7.89999 6.5 7.69999L8 6.79999C8.3 6.59999 8.7 6.59999 9 6.79999L11 7.99999" stroke="#434E5E" stroke-width="1.5" stroke-linecap="round"/>
<path d="M12.6 23.1L12 22.7L11.4 23.1L9 24.8L6.6 23.2L6 22.8L5.5 23.1L2.6 24.8L1 23.5V1H9C16.7 1 23 7.3 23 15V23.4L21 24.8L18.6 23.1L18 22.7L17.4 23.1L15 24.8L12.6 23.1Z" stroke="#434E5E" stroke-width="1.5"/>
<path d="M1 12H22.2" stroke="#434E5E" stroke-width="1.5" stroke-linecap="round"/>
<path d="M11 23V8L14 5" stroke="#434E5E" stroke-width="1.5" stroke-linecap="round"/>
<path d="M13 2C13.9 3.5 16.2 7.2 14 9.5C15.8 8.7 18.3 6.7 21.6 9" stroke="#434E5E" stroke-width="1.5" stroke-miterlimit="2.3662"/>
<path d="M1 18L3 16.8C3.3 16.6 3.7 16.6 4 16.8L5.5 17.7C5.8 17.9 6.2 17.9 6.5 17.7L8 16.8C8.3 16.6 8.7 16.6 9 16.8L10.5 17.7C10.8 17.9 11.2 17.9 11.5 17.7L13 16.8C13.3 16.6 13.7 16.6 14 16.8L15.5 17.7C15.8 17.9 16.2 17.9 16.5 17.7L18 16.8C18.3 16.6 18.7 16.6 19 16.8L20.4 17.6C20.7 17.8 21.2 17.8 21.5 17.5L23 16.4" stroke="#434E5E" stroke-width="1.5" stroke-linecap="round"/>
</g>
<defs>
<clipPath id="clip0_98_3235">
<rect width="24" height="26" fill="white"/>
</clipPath>
</defs>
</svg>
