<svg width="24" height="26" viewBox="0 0 24 26" fill="none" xmlns="http://www.w3.org/2000/svg">
<g clip-path="url(#clip0_98_3237)">
<path d="M5.49727 2.86444L6.03608 3.17779L6.5547 2.83204L9 1.20184L11.4453 2.83204L12 3.20184L12.5547 2.83204L15 1.20184L17.4453 2.83204L18 3.20184L18.5547 2.83204L21 1.20184L23 2.53517V23.3965L21 24.7832L18.5698 23.0982L18 22.7032L17.4302 23.0982L15 24.7832L12.5698 23.0982L12 22.7032L11.4302 23.0982L8.98897 24.7908L6.5547 23.1679L6.03608 22.8222L5.49727 23.1356L2.64318 24.7954L1 23.5121V2.48785L2.64318 1.20461L5.49727 2.86444Z" stroke="#434E5E" stroke-width="1.5"/>
<path d="M2 7.50001L3.9855 6.30871C4.30219 6.1187 4.69781 6.1187 5.0145 6.30871L6.4855 7.19131C6.80219 7.38132 7.19781 7.38132 7.5145 7.19131L8.9855 6.30871C9.30219 6.1187 9.69781 6.1187 10.0145 6.30871L11.4855 7.19131C11.8022 7.38132 12.1978 7.38132 12.5145 7.19131L13.9855 6.30871C14.3022 6.1187 14.6978 6.1187 15.0145 6.30871L16.4855 7.19131C16.8022 7.38132 17.1978 7.38132 17.5145 7.19131L18.9855 6.30871C19.3022 6.1187 19.6978 6.1187 20.0145 6.30871L21.3305 7.0983C21.724 7.33439 22.2276 7.27239 22.5521 6.94792L23 6.50001" stroke="#434E5E" stroke-width="1.5" stroke-linecap="round"/>
<path d="M2 13.5L3.9855 12.3087C4.30219 12.1187 4.69781 12.1187 5.0145 12.3087L6.4855 13.1913C6.80219 13.3813 7.19781 13.3813 7.5145 13.1913L8.9855 12.3087C9.30219 12.1187 9.69781 12.1187 10.0145 12.3087L11.4855 13.1913C11.8022 13.3813 12.1978 13.3813 12.5145 13.1913L13.9855 12.3087C14.3022 12.1187 14.6978 12.1187 15.0145 12.3087L16.4855 13.1913C16.8022 13.3813 17.1978 13.3813 17.5145 13.1913L18.9855 12.3087C19.3022 12.1187 19.6978 12.1187 20.0145 12.3087L21.3305 13.0983C21.724 13.3344 22.2276 13.2724 22.5521 12.9479L23 12.5" stroke="#434E5E" stroke-width="1.5" stroke-linecap="round"/>
<path d="M2 19.5L3.9855 18.3087C4.30219 18.1187 4.69781 18.1187 5.0145 18.3087L6.4855 19.1913C6.80219 19.3813 7.19781 19.3813 7.5145 19.1913L8.9855 18.3087C9.30219 18.1187 9.69781 18.1187 10.0145 18.3087L11.4855 19.1913C11.8022 19.3813 12.1978 19.3813 12.5145 19.1913L13.9855 18.3087C14.3022 18.1187 14.6978 18.1187 15.0145 18.3087L16.4855 19.1913C16.8022 19.3813 17.1978 19.3813 17.5145 19.1913L18.9855 18.3087C19.3022 18.1187 19.6978 18.1187 20.0145 18.3087L21.3305 19.0983C21.724 19.3344 22.2276 19.2724 22.5521 18.9479L23 18.5" stroke="#434E5E" stroke-width="1.5" stroke-linecap="round"/>
</g>
<defs>
<clipPath id="clip0_98_3237">
<rect width="24" height="26" fill="white"/>
</clipPath>
</defs>
</svg>
