<svg width="126" height="28" viewBox="0 0 126 28" fill="none" xmlns="http://www.w3.org/2000/svg">
<g clip-path="url(#clip0_2029_45761)">
<path d="M0.607676 26.371H0.0045166V0.728061H0.501236C1.56563 0.728061 2.74829 0.715851 4.04924 0.69143C4.54596 0.69143 5.08998 0.69143 5.6813 0.69143C6.29629 0.667008 6.76936 0.654797 7.1005 0.654797C7.43165 0.630375 7.68001 0.618164 7.84559 0.618164C12.5053 0.618164 15.9942 1.81483 18.3122 4.20817C20.6302 6.60151 21.7892 9.64203 21.7892 13.3297C21.7892 17.1151 20.5474 20.2533 18.0639 22.7443C15.6039 25.211 12.1032 26.4443 7.56175 26.4443C6.63926 26.4443 5.61035 26.4321 4.47499 26.4076C3.33963 26.3832 2.05053 26.371 0.607676 26.371ZM7.77462 6.11307C6.85215 6.11307 6.15437 6.14971 5.6813 6.22297V20.8761C6.34361 20.9249 7.02955 20.9493 7.73915 20.9493C10.2464 20.9493 12.2096 20.2777 13.6288 18.9345C15.048 17.5913 15.7577 15.723 15.7577 13.3297C15.7577 11.0585 15.0362 9.28792 13.5934 8.01798C12.1505 6.74804 10.2109 6.11307 7.77462 6.11307Z" fill="#434E5E"/>
<path d="M39.3872 26.3715H24.3081V0.728516H39.0324V6.22343H29.985V10.7293H37.9679V16.2242H29.985V20.8765H39.3872V26.3715Z" fill="#434E5E"/>
<path d="M47.2351 26.3715H41.5229L51.8475 0.728516H56.9213L67.2459 26.3715H61.1788L59.1209 20.9864H49.293L47.2351 26.3715ZM56.9922 15.4915L54.2248 8.23822L51.4218 15.4915H56.9922Z" fill="#434E5E"/>
<path d="M84.8902 26.3715H69.1017V0.728516H74.7784V20.8765H84.8902V26.3715Z" fill="#434E5E"/>
<path d="M102.073 26.3715H86.9943V0.728516H101.719V6.22343H92.6711V10.7293H100.654V16.2242H92.6711V20.8765H102.073V26.3715Z" fill="#434E5E"/>
<path d="M110.862 17.3965V26.3715H105.185V0.728537C106.533 0.728537 108.023 0.716327 109.655 0.691907C111.287 0.667484 112.612 0.655273 113.629 0.655273C119.755 0.655273 122.818 3.39051 122.818 8.86101C122.818 12.3778 121.423 14.8444 118.631 16.2608L125.87 26.3715H118.986L112.955 17.3965H110.862ZM113.345 6.15018C113.322 6.15018 113.215 6.16239 113.026 6.18682C112.837 6.18682 112.541 6.19903 112.139 6.22345C111.737 6.22345 111.311 6.22345 110.862 6.22345V11.9015H112.919C115.497 11.9015 116.787 10.9124 116.787 8.93427C116.787 7.07821 115.639 6.15018 113.345 6.15018Z" fill="#434E5E"/>
</g>
<defs>
<clipPath id="clip0_2029_45761">
<rect width="125.865" height="27" fill="white" transform="translate(0.0045166 0.5)"/>
</clipPath>
</defs>
</svg>
