<svg width="238" height="27" viewBox="0 0 238 27" fill="none" xmlns="http://www.w3.org/2000/svg">
<g clip-path="url(#clip0_231_14699)">
<g clip-path="url(#clip1_231_14699)">
<g clip-path="url(#clip2_231_14699)">
<path fill-rule="evenodd" clip-rule="evenodd" d="M37.628 13.0426C37.628 9.46231 38.8583 6.48257 41.3191 4.10341C43.8038 1.70114 47.017 0.5 50.959 0.5C54.877 0.5 58.0665 1.64338 60.5272 3.93016C63.0357 6.21693 64.2899 9.25442 64.2899 13.0426C64.2899 16.6922 63.0238 19.6951 60.4914 22.0511C57.9828 24.4072 54.8053 25.5853 50.959 25.5853C47.0648 25.5853 43.8634 24.4419 41.3549 22.155C38.8703 19.8682 37.628 16.8308 37.628 13.0426ZM43.7201 13.0426C43.7201 15.0984 44.4249 16.8423 45.8344 18.2745C47.2201 19.6835 48.9282 20.388 50.959 20.388C53.2525 20.388 55.0323 19.7066 56.2986 18.3438C57.5647 16.9348 58.1978 15.1676 58.1978 13.0426C58.1978 10.8482 57.505 9.08118 56.1194 7.74145C54.7098 6.37862 52.9897 5.69721 50.959 5.69721C48.8566 5.69721 47.1245 6.37862 45.7627 7.74145C44.4009 9.10427 43.7201 10.8713 43.7201 13.0426ZM66.2967 13.0426C66.2967 9.46231 67.5271 6.48257 69.9879 4.10341C72.4725 1.70114 75.6858 0.5 79.6278 0.5C83.5458 0.5 86.7352 1.64338 89.1959 3.93016C91.7045 6.21693 92.9588 9.25442 92.9588 13.0426C92.9588 16.6922 91.6925 19.6951 89.1601 22.0511C86.6517 24.4072 83.4742 25.5853 79.6278 25.5853C75.7336 25.5853 72.5323 24.4419 70.0237 22.155C67.5391 19.8682 66.2967 16.8308 66.2967 13.0426ZM72.3889 13.0426C72.3889 15.0984 73.0936 16.8423 74.5032 18.2745C75.8888 19.6835 77.5971 20.388 79.6278 20.388C81.9212 20.388 83.7011 19.7066 84.9673 18.3438C86.2335 16.9348 86.8667 15.1676 86.8667 13.0426C86.8667 10.8482 86.1739 9.08118 84.7881 7.74145C83.3786 6.37862 81.6584 5.69721 79.6278 5.69721C77.5254 5.69721 75.7933 6.37862 74.4315 7.74145C73.0698 9.10427 72.3889 10.8713 72.3889 13.0426ZM102.401 25.1699V16.681H104.516L110.608 25.1699H117.56L110.249 15.6069C113.069 14.2672 114.479 11.9343 114.479 8.60803C114.479 3.43391 111.384 0.84686 105.197 0.84686C104.169 0.84686 102.831 0.858409 101.183 0.881507C99.5344 0.904605 98.0293 0.916154 96.6675 0.916154V25.1699H102.401ZM104.587 6.07872C104.779 6.05562 104.886 6.04407 104.91 6.04407C107.227 6.04407 108.386 6.92183 108.386 8.67733C108.386 10.5483 107.084 11.4838 104.48 11.4838H102.401V6.11337H103.691C104.098 6.09027 104.396 6.07872 104.587 6.07872ZM5.73376 25.1699H0V0.916154H14.5136V6.11337H5.73376V11.2413H13.4385V16.4385H5.73376V25.1699ZM35.1249 25.1699H19.1779V0.916154H24.9116V19.9726H35.1249V25.1699Z" fill="#434E5E"/>
</g>
</g>
</g>
<g clip-path="url(#clip3_231_14699)">
<g clip-path="url(#clip4_231_14699)">
<g clip-path="url(#clip5_231_14699)">
<path d="M121.12 23.4348H120.56V0.599816H121.021C122.009 0.599816 123.107 0.588943 124.314 0.567196C124.775 0.567196 125.28 0.567196 125.829 0.567196C126.4 0.545448 126.839 0.534574 127.147 0.534574C127.454 0.512827 127.685 0.501953 127.838 0.501953C132.163 0.501953 135.402 1.56758 137.553 3.69885C139.705 5.8301 140.781 8.53767 140.781 11.8216C140.781 15.1925 139.628 17.987 137.323 20.2052C135.04 22.4017 131.79 23.5 127.575 23.5C126.719 23.5 125.763 23.4891 124.71 23.4673C123.656 23.4456 122.459 23.4348 121.12 23.4348ZM127.772 5.39515C126.916 5.39515 126.268 5.42777 125.829 5.49301V18.5415C126.444 18.585 127.081 18.6068 127.739 18.6068C130.067 18.6068 131.889 18.0087 133.206 16.8126C134.524 15.6165 135.182 13.9528 135.182 11.8216C135.182 9.79905 134.513 8.22233 133.173 7.09146C131.834 5.96059 130.034 5.39515 127.772 5.39515Z" fill="#434E5E"/>
<path d="M157.115 23.4346H143.119V0.599609H156.786V5.49281H148.388V9.50523H155.798V14.3984H148.388V18.5413H157.115V23.4346Z" fill="#434E5E"/>
<path d="M164.4 23.4346H159.098L168.682 0.599609H173.391L182.975 23.4346H177.343L175.433 18.6392H166.31L164.4 23.4346ZM173.457 13.746L170.888 7.28698L168.286 13.746H173.457Z" fill="#434E5E"/>
<path d="M199.352 23.4346H184.697V0.599609H189.966V18.5413H199.352V23.4346Z" fill="#434E5E"/>
<path d="M215.302 23.4346H201.305V0.599609H214.973V5.49281H206.575V9.50523H213.985V14.3984H206.575V18.5413H215.302V23.4346Z" fill="#434E5E"/>
<path d="M223.459 15.4431V23.4353H218.19V0.600398C219.441 0.600398 220.825 0.589525 222.339 0.567777C223.854 0.54603 225.084 0.535156 226.028 0.535156C231.714 0.535156 234.557 2.97088 234.557 7.84233C234.557 10.974 233.262 13.1705 230.671 14.4318L237.39 23.4353H231.001L225.402 15.4431H223.459ZM225.765 5.42835C225.742 5.42835 225.643 5.43923 225.467 5.46097C225.293 5.46097 225.018 5.47185 224.644 5.4936C224.272 5.4936 223.876 5.4936 223.459 5.4936V10.5499H225.369C227.763 10.5499 228.959 9.66913 228.959 7.90757C228.959 6.25476 227.894 5.42835 225.765 5.42835Z" fill="#434E5E"/>
</g>
</g>
</g>
<defs>
<clipPath id="clip0_231_14699">
<rect width="117.56" height="26" fill="white" transform="translate(0 0.5)"/>
</clipPath>
<clipPath id="clip1_231_14699">
<rect width="117.56" height="26" fill="white" transform="translate(0 0.5)"/>
</clipPath>
<clipPath id="clip2_231_14699">
<rect width="117.56" height="25.9988" fill="white" transform="translate(0 0.5)"/>
</clipPath>
<clipPath id="clip3_231_14699">
<rect width="116.83" height="23" fill="white" transform="translate(120.56 0.5)"/>
</clipPath>
<clipPath id="clip4_231_14699">
<rect width="116.83" height="23" fill="white" transform="translate(120.56 0.5)"/>
</clipPath>
<clipPath id="clip5_231_14699">
<rect width="116.83" height="22.998" fill="white" transform="translate(120.56 0.501953)"/>
</clipPath>
</defs>
</svg>
