<svg width="119" height="28" viewBox="0 0 119 28" fill="none" xmlns="http://www.w3.org/2000/svg">
<g clip-path="url(#clip0_2029_45759)">
<path fill-rule="evenodd" clip-rule="evenodd" d="M38.0888 13.5256C38.0888 9.80743 39.3342 6.71295 41.8251 4.24216C44.3402 1.74739 47.5928 0.5 51.583 0.5C55.5491 0.5 58.7776 1.68741 61.2685 4.06225C63.8076 6.43708 65.0773 9.59153 65.0773 13.5256C65.0773 17.3157 63.7956 20.4342 61.2322 22.881C58.6929 25.3278 55.4765 26.5512 51.583 26.5512C47.6412 26.5512 44.4006 25.3638 41.8613 22.9889C39.3463 20.6141 38.0888 17.4596 38.0888 13.5256ZM44.2555 13.5256C44.2555 15.6605 44.969 17.4716 46.3957 18.959C47.7984 20.4222 49.5274 21.1538 51.583 21.1538C53.9047 21.1538 55.7063 20.4462 56.988 19.0309C58.2697 17.5676 58.9106 15.7325 58.9106 13.5256C58.9106 11.2467 58.2093 9.41162 56.8067 8.0203C55.3798 6.60499 53.6387 5.89735 51.583 5.89735C49.4549 5.89735 47.7016 6.60499 46.3231 8.0203C44.9447 9.4356 44.2555 11.2707 44.2555 13.5256ZM67.1086 13.5256C67.1086 9.80743 68.3541 6.71295 70.845 4.24216C73.36 1.74739 76.6127 0.5 80.6029 0.5C84.569 0.5 87.7974 1.68741 90.2883 4.06225C92.8275 6.43708 94.0972 9.59153 94.0972 13.5256C94.0972 17.3157 92.8154 20.4342 90.252 22.881C87.7128 25.3278 84.4964 26.5512 80.6029 26.5512C76.6611 26.5512 73.4205 25.3638 70.8812 22.9889C68.3662 20.6141 67.1086 17.4596 67.1086 13.5256ZM73.2754 13.5256C73.2754 15.6605 73.9887 17.4716 75.4156 18.959C76.8182 20.4222 78.5473 21.1538 80.6029 21.1538C82.9245 21.1538 84.7262 20.4462 86.0078 19.0309C87.2896 17.5676 87.9305 15.7325 87.9305 13.5256C87.9305 11.2467 87.2292 9.41162 85.8265 8.0203C84.3997 6.60499 82.6584 5.89735 80.6029 5.89735C78.4748 5.89735 76.7215 6.60499 75.343 8.0203C73.9646 9.4356 73.2754 11.2707 73.2754 13.5256ZM103.655 26.1198V17.3041H105.796L111.962 26.1198H119L111.6 16.1886C114.454 14.7973 115.881 12.3746 115.881 8.92026C115.881 3.54689 112.748 0.860216 106.485 0.860216C105.445 0.860216 104.091 0.87221 102.422 0.896198C100.753 0.920186 99.2298 0.93218 97.8514 0.93218V26.1198H103.655ZM105.868 6.29354C106.062 6.26956 106.17 6.25756 106.195 6.25756C108.54 6.25756 109.713 7.16912 109.713 8.99222C109.713 10.9353 108.395 11.9068 105.759 11.9068H103.655V6.32952H104.961C105.372 6.30554 105.675 6.29354 105.868 6.29354ZM5.80398 26.1198H0V0.93218H14.6913V6.32952H5.80398V11.6549H13.603V17.0523H5.80398V26.1198ZM35.555 26.1198H19.4127V0.93218H25.2167V20.7224H35.555V26.1198Z" fill="#D73227"/>
</g>
<defs>
<clipPath id="clip0_2029_45759">
<rect width="119" height="27" fill="white" transform="translate(0 0.5)"/>
</clipPath>
</defs>
</svg>
